<svg xmlns:xlink="http://www.w3.org/1999/xlink" height="512" width="1024"
    xmlns="http://www.w3.org/2000/svg">
    <defs>
        <symbol xmlns:xlink="http://www.w3.org/1999/xlink" height="1024" id="svg_9" width="1024"
            xmlns="http://www.w3.org/2000/svg">
            <defs>
                <symbol height="512" id="svg_8" viewBox="0 0 512 512" width="512"
                    xmlns="http://www.w3.org/2000/svg">
                    <path
                        d="m330.67,277.33c0,-2.83 -1.13,-5.54 -3.13,-7.54c-2,-2 -4.71,-3.12 -7.54,-3.12l-181.33,0c-2.83,0 -5.54,1.12 -7.54,3.12c-2.01,2 -3.13,4.71 -3.13,7.54l0,154.67l202.67,0l0,-154.67z"
                        fill="#FAC100" id="svg_1" />
                    <path d="m256,266.67l0,64l-26.67,-16l-26.66,16l0,-64l53.33,0z" fill="#F87600"
                        id="svg_2" />
                    <path
                        d="m362.67,96l-224,0c-5.89,0 -10.67,4.78 -10.67,10.67l0,106.66c0,5.89 4.78,10.67 10.67,10.67l224,0c5.89,0 10.66,-4.78 10.66,-10.67l0,-106.66c0,-5.89 -4.77,-10.67 -10.66,-10.67z"
                        fill="#00CF66" id="svg_3" />
                    <path
                        d="m85.33,460.85l39.43,-6.58c5.9,-0.98 11.96,-0.07 17.31,2.6l32.73,16.37c15.18,7.59 32.76,8.84 48.86,3.47l126.2,-42.06c2.39,-0.8 4.59,-2.07 6.47,-3.73c1.89,-1.67 3.42,-3.7 4.5,-5.97c1.08,-2.27 1.7,-4.73 1.8,-7.25c0.11,-2.51 -0.29,-5.02 -1.17,-7.38l0,0c-1.5,-4 -4.33,-7.37 -8.02,-9.55c-3.69,-2.17 -8.01,-3.01 -12.24,-2.39l-94.9,14.06c2.37,-2.33 4.04,-5.27 4.84,-8.5l0,0c1.09,-4.35 0.53,-8.95 -1.58,-12.91c-2.1,-3.96 -5.6,-7 -9.82,-8.53l-66.42,-21.76c-9.89,-3.24 -20.56,-3.22 -30.44,0.08l-57.55,19.18l0,80.85z"
                        fill="#FFD188" id="svg_4" />
                    <path
                        d="m426.67,146.81l-40.86,18.28c-8.23,3.68 -17.13,5.58 -26.14,5.58l-105.03,0c-4.09,0 -8.05,-1.45 -11.17,-4.1c-3.12,-2.64 -5.2,-6.31 -5.88,-10.34l0,0c-0.38,-2.28 -0.3,-4.62 0.24,-6.87c0.54,-2.24 1.53,-4.36 2.9,-6.23c1.37,-1.86 3.1,-3.42 5.09,-4.6c1.99,-1.18 4.2,-1.95 6.49,-2.27l60.55,-8.24c3.42,-0.47 6.68,-1.76 9.49,-3.76c2.82,-2 5.1,-4.66 6.66,-7.74l10.38,-20.52l-162.12,0l16.58,-20.89c5.81,-7.32 13.15,-13.28 21.5,-17.45l41.24,-18.9c13.4,-6.71 28.73,-8.49 43.32,-5.05l126.76,28.19l0,84.91z"
                        fill="#FFD188" id="svg_5" />
                    <path
                        d="m74.67,357.33l-32,0c-5.89,0 -10.67,4.78 -10.67,10.67l0,96c0,5.89 4.78,10.67 10.67,10.67l32,0c5.89,0 10.66,-4.78 10.66,-10.67l0,-96c0,-5.89 -4.77,-10.67 -10.66,-10.67z"
                        fill="#00CF66" id="svg_6" />
                    <path
                        d="m469.33,42.67l-32,0c-5.89,0 -10.66,4.77 -10.66,10.66l0,96c0,5.89 4.77,10.67 10.66,10.67l32,0c5.89,0 10.67,-4.78 10.67,-10.67l0,-96c0,-5.89 -4.78,-10.66 -10.67,-10.66z"
                        fill="#00CF66" id="svg_11" />
                    <path
                        d="m341.33,387.74l0,-110.41c0,-5.65 -2.25,-11.08 -6.25,-15.08c-4,-4 -9.42,-6.24 -15.08,-6.25l-181.33,0c-5.66,0.01 -11.08,2.25 -15.08,6.25c-4,4 -6.25,9.43 -6.26,15.08l0,80.76l-21.6,7.2c-0.65,-5.13 -3.15,-9.85 -7.02,-13.28c-3.88,-3.43 -8.87,-5.33 -14.04,-5.34l-32,0c-5.66,0 -11.08,2.25 -15.08,6.25c-4,4 -6.25,9.42 -6.26,15.08l0,96c0.01,5.66 2.26,11.08 6.26,15.08c4,4 9.42,6.25 15.08,6.25l32,0c4.58,-0.01 9.04,-1.51 12.71,-4.27c3.67,-2.75 6.35,-6.62 7.64,-11.02l31.5,-5.24c3.67,-0.62 7.45,-0.06 10.78,1.62l32.73,16.37c8.76,4.4 18.31,7.03 28.1,7.73c9.79,0.69 19.61,-0.56 28.91,-3.69l126.2,-42.06c3.75,-1.25 7.2,-3.24 10.16,-5.85c2.96,-2.62 5.36,-5.8 7.06,-9.37c1.7,-3.56 2.67,-7.43 2.84,-11.38c0.17,-3.94 -0.45,-7.88 -1.84,-11.58c-2.29,-5.99 -6.47,-11.07 -11.9,-14.48c-5.44,-3.4 -11.84,-4.94 -18.23,-4.37l0,0zm-266.66,76.26l-32,0l0,-96l32,0l0,96zm170.66,-186.67l0,34.5l-10.51,-6.31c-1.66,-1 -3.55,-1.52 -5.49,-1.52c-1.93,0 -3.83,0.52 -5.49,1.52l-10.51,6.31l0,-34.5l32,0zm-106.66,0l53.33,0l0,53.34c0,1.88 0.5,3.74 1.45,5.37c0.95,1.63 2.32,2.98 3.96,3.91c1.65,0.93 3.5,1.41 5.39,1.38c1.89,-0.02 3.74,-0.55 5.36,-1.52l21.17,-12.71l21.18,12.71c1.62,0.97 3.47,1.49 5.35,1.52c1.89,0.02 3.75,-0.46 5.39,-1.39c1.65,-0.93 3.01,-2.27 3.96,-3.91c0.95,-1.63 1.46,-3.48 1.46,-5.37l0,-53.33l53.33,0l0,113.41l-57.75,8.56c-0.05,-5.92 -1.91,-11.67 -5.35,-16.49c-3.43,-4.82 -8.26,-8.47 -13.83,-10.44l-66.42,-21.77c-12.08,-3.93 -25.09,-3.9 -37.14,0.09l-0.84,0.29l0,-73.65zm212.54,143.03c-0.46,0.98 -1.12,1.85 -1.93,2.57c-0.81,0.72 -1.76,1.26 -2.79,1.6l-126.2,42.06c-6.64,2.24 -13.66,3.14 -20.65,2.64c-6.99,-0.5 -13.81,-2.37 -20.07,-5.53l-32.74,-16.37c-7.36,-3.69 -15.7,-4.94 -23.82,-3.58l-27.01,4.5l0,-60.56l50.26,-16.75c7.71,-2.56 16.03,-2.58 23.74,-0.06l66.1,21.64c1.76,0.64 3.21,1.92 4.07,3.58c0.87,1.66 1.07,3.58 0.59,5.39c-0.49,1.81 -1.64,3.36 -3.22,4.36c-1.58,1 -3.48,1.37 -5.32,1.04l-72.22,-13.13c-1.38,-0.26 -2.81,-0.25 -4.18,0.04c-1.38,0.29 -2.69,0.85 -3.85,1.65c-1.16,0.79 -2.15,1.81 -2.91,2.99c-0.77,1.19 -1.29,2.51 -1.54,3.89c-0.26,1.39 -0.23,2.81 0.07,4.19c0.3,1.37 0.87,2.67 1.68,3.83c0.8,1.15 1.83,2.14 3.02,2.89c1.18,0.76 2.51,1.27 3.9,1.51l72.21,13.13c3.89,0.71 7.88,0.6 11.73,-0.31c3.85,-0.92 7.46,-2.62 10.62,-5l92.02,-13.63c1.82,-0.27 3.67,0.1 5.26,1.03c1.58,0.94 2.8,2.38 3.45,4.1c0.38,1.01 0.56,2.09 0.51,3.17c-0.05,1.08 -0.31,2.14 -0.78,3.12l0,0z"
                        fill="black" id="svg_12" />
                    <path
                        d="m469.33,32l-32,0c-4.85,0.01 -9.55,1.67 -13.33,4.71c-3.78,3.04 -6.42,7.28 -7.47,12.01l-114.17,-25.39c-16.9,-4 -34.66,-1.97 -50.21,5.73l-41.57,19.06c-9.74,4.88 -18.3,11.83 -25.09,20.36l-13.38,16.85l-33.44,0c-5.66,0.01 -11.08,2.26 -15.08,6.26c-4,4 -6.25,9.42 -6.26,15.08l0,106.66c0.01,5.66 2.26,11.08 6.26,15.08c4,4 9.42,6.25 15.08,6.26l224,0c5.65,-0.01 11.08,-2.26 15.08,-6.26c3.99,-4 6.24,-9.42 6.25,-15.08l0,-36.13c2.07,-0.72 4.14,-1.48 6.16,-2.38l29.72,-13.29c1.95,2.81 4.56,5.11 7.6,6.7c3.04,1.59 6.42,2.43 9.85,2.43l32,0c5.66,0 11.08,-2.25 15.08,-6.25c4,-4 6.25,-9.42 6.26,-15.08l0,-96c-0.01,-5.66 -2.26,-11.08 -6.26,-15.08c-4,-3.99 -9.42,-6.24 -15.08,-6.25l0,0zm-106.66,181.33l-224,0l0,-106.66l183.37,0l-2.54,5.03c-0.79,1.54 -1.93,2.87 -3.33,3.87c-1.41,1 -3.04,1.64 -4.75,1.87l-60.55,8.25c-7.02,0.96 -13.42,4.54 -17.9,10.03c-4.47,5.5 -6.7,12.49 -6.22,19.56c0.48,7.06 3.63,13.69 8.81,18.53c5.17,4.83 12,7.52 19.08,7.52l105.03,0c1.01,0 2,-0.11 3,-0.15l0,32.15zm18.78,-57.98c-6.85,3.07 -14.27,4.66 -21.78,4.65l-105.03,0c-1.68,0 -3.29,-0.63 -4.52,-1.78c-1.22,-1.14 -1.97,-2.71 -2.08,-4.38c-0.12,-1.68 0.41,-3.33 1.47,-4.63c1.06,-1.3 2.57,-2.15 4.23,-2.38l60.55,-8.24c5.13,-0.7 10.02,-2.64 14.24,-5.64c4.22,-3.01 7.65,-7 9.99,-11.62l10.39,-20.51c0.82,-1.63 1.21,-3.44 1.14,-5.26c-0.07,-1.82 -0.61,-3.59 -1.57,-5.14c-0.95,-1.56 -2.29,-2.84 -3.88,-3.73c-1.59,-0.89 -3.38,-1.36 -5.2,-1.36l-140.05,0l2.85,-3.59c4.77,-6 10.77,-10.91 17.6,-14.39l41.56,-19.05c11.21,-5.59 24.04,-7.07 36.23,-4.17l118.41,26.33l0,69.44l-34.55,15.45zm87.88,-6.02l-32,0l0,-96l32,0l0,96z"
                        fill="black" id="svg_13" />
                </symbol>
            </defs>
            <g class="layer" id="svg_14">
                <title>Layer 1</title>
                <use id="svg_7" transform="matrix(2.17761 0 0 2.17182 -23.3196 -0.49161)" x="-10.25"
                    y="-19.5" xlink:href="#svg_8" />
            </g>
        </symbol>
    </defs>
    <g class="layer">
        <title>Layer 1</title>
        <use id="svg_10" transform="matrix(0.498475 0 0 0.501615 -1.50247 -1.53684)" x="518.32"
            y="0.24" xlink:href="#svg_9" />
    </g>
</svg>