<svg xmlns:xlink="http://www.w3.org/1999/xlink" height="512" width="1024"
    xmlns="http://www.w3.org/2000/svg">
    <defs>
        <symbol height="612" id="svg_12" width="612" xmlns="http://www.w3.org/2000/svg">
            <g clip-path="url(#svg_11)" fill="#0BA4DB" id="svg_1">
                <path
                    d="m548.42,0l-516.63,0c-17.48,0 -31.79,14.33 -31.79,31.85l0,57.34c0,17.51 14.31,31.85 31.79,31.85l515.04,0c17.48,0 31.79,-14.34 31.79,-31.85l0,-57.34c1.59,-17.52 -12.72,-31.85 -30.2,-31.85zm0,320.11l-516.63,0c-17.48,0 -31.79,14.33 -31.79,31.85l0,57.34c0,17.52 14.31,31.85 31.79,31.85l515.04,0c17.48,0 31.79,-14.34 31.79,-31.85l0,-57.34c1.59,-17.52 -12.72,-31.85 -30.2,-31.85zm-225.73,160.85l-290.9,0c-17.48,0 -31.79,14.34 -31.79,31.86l0,57.33c0,17.52 14.31,31.85 31.79,31.85l290.9,0c17.49,0 31.79,-14.33 31.79,-31.85l0,-57.33c0,-17.52 -14.3,-31.86 -31.79,-31.86zm257.52,-320.11l-548.42,0c-17.48,0 -31.79,14.34 -31.79,31.85l0,57.34c0,17.52 14.31,31.85 31.79,31.85l548.42,0c17.48,0 31.79,-14.33 31.79,-31.85l0,-57.34c0,-17.51 -14.31,-31.85 -31.79,-31.85z"
                    id="svg_2" />
            </g>
            <defs>
                <clipPath id="svg_11">
                    <path d="m0,0l612,0l0,602l-612,0l0,-602z" fill="#fff" id="svg_3" />
                </clipPath>
            </defs>
        </symbol>
    </defs>
    <g class="layer">
        <title>Layer 1</title>
        <use id="svg_13" transform="matrix(0.829306 0 0 0.850267 -1.46503 0.0548629)" x="313.15"
            y="0.02" xlink:href="#svg_12" />
    </g>
</svg>