<svg height="512" width="1024" xmlns="http://www.w3.org/2000/svg">
    <g class="layer">
        <title>Layer 1</title>
        <g fill="none" id="svg_1">
            <path
                d="m1019.91,190.65c-9.12,-26.75 -34.65,-45.59 -64.44,-45.59l-0.61,0c-18.85,0 -36.48,7.9 -49.24,20.67c-12.16,-12.77 -29.79,-20.67 -48.63,-20.67l-0.61,0c-17.02,0 -32.83,6.08 -44.38,16.41l0,-5.47c-0.61,-4.86 -4.86,-9.12 -10.33,-9.12l-45.59,0c-5.47,0 -9.73,4.26 -9.73,9.73l0,248.04c0,5.47 4.26,9.73 9.73,9.73l45.59,0c4.86,0 9.12,-3.65 9.73,-8.51l0,-177.52a15.81,15.81 0 0 1 0.61,-1.82c0.61,-7.9 6.08,-14.59 15.2,-15.2l8.51,0c4.26,0 7.3,1.22 9.73,3.65c4.26,3.04 6.08,7.9 6.08,13.37l0.61,176.91c0,5.47 4.26,9.73 9.73,9.73l45.59,0c5.47,0 9.73,-4.26 10.33,-9.73l0,-177.52c0,-5.47 2.43,-10.94 7.3,-13.98c2.43,-1.82 4.86,-2.43 8.51,-3.04l7.9,0c10.33,1.22 15.81,8.51 15.81,17.02l0.61,176.91c0,5.47 4.26,9.73 9.73,9.73l45.59,0c5.47,0 10.33,-4.26 10.33,-9.73l0,-190.28c0,-12.77 -1.82,-18.24 -3.65,-23.71m-308.83,-43.16l-25.53,0l0,-42.56c0,-4.86 -4.26,-9.12 -9.73,-9.12c-0.61,0 -1.22,0 -1.22,0c-29.18,7.9 -23.71,48.03 -75.99,51.67l-5.47,0c-0.61,0 -1.22,0 -1.82,0l0,0l0,0c-4.86,1.22 -7.9,5.47 -7.9,9.73l0,45.59c0,6.08 4.26,10.33 9.73,10.33l27.36,0l0,193.32c0,5.47 4.86,9.73 10.33,9.73l44.99,0c5.47,0 9.73,-4.26 9.73,-9.73l0,-193.32l25.53,0c6.08,0 10.33,-4.26 10.33,-10.33l0,-45.59c0,-5.47 -4.26,-9.73 -10.33,-9.73"
                fill="#00BAF2" id="svg_2" />
            <path
                d="m547.55,147.48l-45.59,0c-6.08,0 -10.33,4.26 -10.33,9.73l0,94.84c0,5.47 -4.86,10.33 -10.94,10.33l-18.85,0c-6.08,0 -10.94,-4.86 -10.94,-10.94l0,-94.23c0,-5.47 -4.26,-9.73 -9.73,-9.73l-45.59,0c-6.08,0 -10.33,4.26 -10.33,9.73l0,103.35c0,39.52 27.96,67.48 67.48,67.48c0,0 29.18,0 30.4,0c4.86,0.61 9.12,5.47 9.12,10.94c0,5.47 -4.26,9.73 -9.12,10.33c-0.61,0 -0.61,0 -0.61,0l-66.87,0.61c-5.47,0 -10.33,4.26 -10.33,9.73l0,45.59c0,5.47 4.86,10.33 10.33,10.33l74.78,0c38.91,0 66.87,-27.96 66.87,-67.48l0,-190.89c0,-5.47 -4.26,-9.73 -9.73,-9.73m-441.36,83.29l0,28.57c0,5.47 -4.86,10.33 -10.94,10.33l-29.18,0l0,-56.54l29.18,0c6.08,0 10.94,4.86 10.94,10.94l0,6.69l0,0.01zm3.65,-83.29l-99.7,0c-5.47,0 -9.73,4.26 -9.73,9.73l0,44.99c0,0 0,0 0,0c0,0 0,0.61 0,0.61l0,202.44c0,5.47 4.26,9.73 9.12,9.73l46.81,0c5.47,0 9.73,-4.26 9.73,-9.73l0,-69.3l43.77,0c36.48,0 62.01,-25.53 62.01,-62.01l0,-64.44c0,-36.48 -25.53,-62.01 -62.01,-62.01l0,-0.01zm185.42,190.28l0,7.3c0,0.61 0,1.22 0,1.82a10.33,10.33 0 0 1 -0.61,1.22c-1.82,4.26 -5.47,7.3 -10.33,7.3l-18.85,0c-6.08,0 -10.94,-4.86 -10.94,-10.33l0,-8.51c0,0 0,0 0,-0.61l0,-22.49l0,-7.3l0,0c0,-5.47 4.86,-10.33 10.94,-10.33l18.85,0c6.08,0 10.94,4.86 10.94,10.33l0,31.61l0,-0.01zm-7.3,-190.28l-63.22,0c-5.47,0 -10.33,4.26 -10.33,9.73l0,17.63c0,0 0,0 0,0.61c0,0 0,0 0,0l0,24.32c0,5.47 4.86,10.33 10.94,10.33l60.18,0c4.86,0.61 8.51,4.26 9.12,9.73l0,5.47c-0.61,5.47 -4.26,9.12 -9.12,9.73l-29.79,0c-39.52,0 -68.09,26.14 -68.09,63.22l0,52.89c0,37.08 24.32,63.22 63.83,63.22l82.68,0c15.2,0 26.75,-11.55 26.75,-25.53l0,-172.65c0,-41.95 -21.28,-68.7 -72.95,-68.7z"
                fill="#1F336B" id="svg_3" />
        </g>
    </g>
</svg>