<svg xmlns="http://www.w3.org/2000/svg" xmlns:xlink="http://www.w3.org/1999/xlink" width="512" height="508" viewBox="0 0 512 508">
  <defs>
    <clipPath id="clip-path">
      <rect id="Rectangle_2908" data-name="Rectangle 2908" width="512" height="508" transform="translate(0 0.152)" fill="none"/>
    </clipPath>
    <clipPath id="clip-path-4">
      <rect id="Rectangle_2906" data-name="Rectangle 2906" width="36.395" height="15.894" fill="none"/>
    </clipPath>
  </defs>
  <g id="Empty_Wishlist" transform="translate(0 -0.152)">
    <g id="Group_8766" data-name="Group 8766" clip-path="url(#clip-path)">
      <g id="Group_8760" data-name="Group 8760">
        <g id="Group_8759" data-name="Group 8759" clip-path="url(#clip-path)">
          <path id="Path_7839" data-name="Path 7839" d="M1.158,278.013S4.112,369.571,80.542,430.6s182.34,65.4,268.079,71.193S500.214,459.05,510.14,385.681,454.55,290.773,419,207.255,386.621,96.284,311.41,44.917,118.543,25.092,56.855,113.091s-55.7,164.922-55.7,164.922" transform="translate(-0.076 -1.531)" fill="#f1f3f9"/>
          <path id="Path_7840" data-name="Path 7840" d="M1.158,278.013S4.112,369.571,80.542,430.6s182.34,65.4,268.079,71.193S500.214,459.05,510.14,385.681,454.55,290.773,419,207.255,386.621,96.284,311.41,44.917,118.543,25.092,56.855,113.091,1.158,278.013,1.158,278.013Z" transform="translate(-0.076 -1.531)" fill="none" stroke="#b5bccc" stroke-miterlimit="10" stroke-width="2"/>
          <path id="Path_7841" data-name="Path 7841" d="M464.511,428.435H75.5L75.953,108.2A11.626,11.626,0,0,1,87.579,96.57H453.341A11.626,11.626,0,0,1,464.967,108.2Z" transform="translate(-5.724 -7.321)" fill="#fff"/>
          <path id="Path_7842" data-name="Path 7842" d="M464.511,428.435H75.5L75.953,108.2A11.626,11.626,0,0,1,87.579,96.57H453.341A11.626,11.626,0,0,1,464.967,108.2Z" transform="translate(-5.724 -7.321)" fill="none" stroke="#1a2e35" stroke-linecap="round" stroke-linejoin="round" stroke-width="1"/>
          <rect id="Rectangle_2895" data-name="Rectangle 2895" width="55.228" height="11.37" transform="translate(121.511 117.703)" fill="none" stroke="#1a2e35" stroke-linecap="round" stroke-linejoin="round" stroke-width="1"/>
          <line id="Line_48" data-name="Line 48" x2="100.729" transform="translate(344.18 133.188)" fill="none" stroke="#1a2e35" stroke-linecap="round" stroke-linejoin="round" stroke-width="1"/>
          <line id="Line_49" data-name="Line 49" x2="246.488" transform="translate(91.823 133.188)" fill="none" stroke="#1a2e35" stroke-linecap="round" stroke-linejoin="round" stroke-width="1"/>
          <path id="Path_7843" data-name="Path 7843" d="M453.378,96.57H87.616A11.626,11.626,0,0,0,75.99,108.2v8.851H465V108.2A11.626,11.626,0,0,0,453.378,96.57" transform="translate(-5.761 -7.321)" fill="#aab2c5"/>
          <path id="Path_7844" data-name="Path 7844" d="M98.345,108.579a3.508,3.508,0,1,0-3.507,3.507,3.507,3.507,0,0,0,3.507-3.507" transform="translate(-6.924 -7.966)" fill="#fff"/>
          <path id="Path_7845" data-name="Path 7845" d="M98.345,108.579a3.508,3.508,0,1,0-3.507,3.507A3.507,3.507,0,0,0,98.345,108.579Z" transform="translate(-6.924 -7.966)" fill="none" stroke="#1a2e35" stroke-linecap="round" stroke-linejoin="round" stroke-width="1"/>
          <path id="Path_7846" data-name="Path 7846" d="M113.526,108.579a3.508,3.508,0,1,0-3.507,3.507,3.507,3.507,0,0,0,3.507-3.507" transform="translate(-8.075 -7.966)" fill="#fff"/>
          <path id="Path_7847" data-name="Path 7847" d="M113.526,108.579a3.508,3.508,0,1,0-3.507,3.507A3.507,3.507,0,0,0,113.526,108.579Z" transform="translate(-8.075 -7.966)" fill="none" stroke="#1a2e35" stroke-linecap="round" stroke-linejoin="round" stroke-width="1"/>
          <path id="Path_7848" data-name="Path 7848" d="M128.708,108.579a3.508,3.508,0,1,0-3.508,3.507,3.508,3.508,0,0,0,3.508-3.507" transform="translate(-9.226 -7.966)" fill="#fff"/>
          <circle id="Ellipse_92" data-name="Ellipse 92" cx="3.507" cy="3.507" r="3.507" transform="translate(111.503 98.465) rotate(-19.33)" fill="none" stroke="#1a2e35" stroke-linecap="round" stroke-linejoin="round" stroke-width="1"/>
          <line id="Line_50" data-name="Line 50" x2="16.649" transform="translate(92.678 118.38)" fill="none" stroke="#1a2e35" stroke-linecap="round" stroke-linejoin="round" stroke-width="1"/>
          <line id="Line_51" data-name="Line 51" x2="16.649" transform="translate(92.678 122.847)" fill="none" stroke="#1a2e35" stroke-linecap="round" stroke-linejoin="round" stroke-width="1"/>
          <line id="Line_52" data-name="Line 52" x2="16.649" transform="translate(92.678 127.314)" fill="none" stroke="#1a2e35" stroke-linecap="round" stroke-linejoin="round" stroke-width="1"/>
          <path id="Path_7849" data-name="Path 7849" d="M427.65,243.667H106.762a4.337,4.337,0,0,1-4.336-4.336V175.424a4.337,4.337,0,0,1,4.336-4.336H427.65a4.336,4.336,0,0,1,4.336,4.336v63.907a4.336,4.336,0,0,1-4.336,4.336" transform="translate(-7.765 -12.971)" fill="#fff"/>
          <rect id="Rectangle_2896" data-name="Rectangle 2896" width="329.561" height="72.579" rx="4.692" transform="translate(94.661 158.118)" fill="none" stroke="#1a2e35" stroke-linecap="round" stroke-linejoin="round" stroke-width="1"/>
          <rect id="Rectangle_2897" data-name="Rectangle 2897" width="58.93" height="53.578" transform="translate(103.461 168.664)" fill="#fff"/>
          <rect id="Rectangle_2898" data-name="Rectangle 2898" width="58.93" height="53.578" transform="translate(103.461 168.664)" fill="none" stroke="#1a2e35" stroke-linecap="round" stroke-linejoin="round" stroke-width="1"/>
          <path id="Path_7850" data-name="Path 7850" d="M362.8,196.485H188.936a2.022,2.022,0,1,1,0-4.043H362.8a2.022,2.022,0,0,1,0,4.043" transform="translate(-14.17 -14.589)" fill="#858d9e"/>
          <path id="Path_7851" data-name="Path 7851" d="M407.778,185.86H188.936a2.022,2.022,0,0,1,0-4.043H407.778a2.022,2.022,0,0,1,0,4.043" transform="translate(-14.17 -13.784)" fill="#1a2e35"/>
          <path id="Path_7852" data-name="Path 7852" d="M424.035,226.61a4.25,4.25,0,0,0-4.968,1.82,4.258,4.258,0,0,0-4.946-1.894c-2.866.86-3.887,4.5-1.5,7.843a17.352,17.352,0,0,0,5.918,4.8c.17.09.325.164.452.223.127-.057.283-.129.455-.215a17.306,17.306,0,0,0,5.983-4.712c2.437-3.31,1.465-6.961-1.388-7.864" transform="translate(-31.181 -17.158)" fill="#aab2c5"/>
          <path id="Path_7853" data-name="Path 7853" d="M446.453,234.994h-8.774l-.889-8.65h10.552Z" transform="translate(-33.114 -17.16)" fill="#fff"/>
          <path id="Path_7854" data-name="Path 7854" d="M446.453,234.994h-8.774l-.889-8.65h10.552Z" transform="translate(-33.114 -17.16)" fill="none" stroke="#1a2e35" stroke-linecap="round" stroke-linejoin="round" stroke-width="1"/>
          <line id="Line_53" data-name="Line 53" x2="9.927" transform="translate(403.989 212.135)" fill="#fff"/>
          <line id="Line_54" data-name="Line 54" x2="9.927" transform="translate(403.989 212.135)" fill="none" stroke="#1a2e35" stroke-linecap="round" stroke-linejoin="round" stroke-width="1"/>
          <line id="Line_55" data-name="Line 55" x2="9.291" transform="translate(404.307 214.883)" fill="#fff"/>
          <line id="Line_56" data-name="Line 56" x2="9.291" transform="translate(404.307 214.883)" fill="none" stroke="#1a2e35" stroke-linecap="round" stroke-linejoin="round" stroke-width="1"/>
          <line id="Line_57" data-name="Line 57" x2="0.22" y2="8.65" transform="translate(406.996 209.184)" fill="#fff"/>
          <line id="Line_58" data-name="Line 58" x2="0.22" y2="8.65" transform="translate(406.996 209.184)" fill="none" stroke="#1a2e35" stroke-linecap="round" stroke-linejoin="round" stroke-width="1"/>
          <line id="Line_59" data-name="Line 59" x1="0.263" y2="8.65" transform="translate(410.646 209.184)" fill="#fff"/>
          <line id="Line_60" data-name="Line 60" x1="0.263" y2="8.65" transform="translate(410.646 209.184)" fill="none" stroke="#1a2e35" stroke-linecap="round" stroke-linejoin="round" stroke-width="1"/>
          <line id="Line_61" data-name="Line 61" y1="0.889" x2="2.453" transform="translate(414.177 208.264)" fill="#fff"/>
          <line id="Line_62" data-name="Line 62" y1="0.889" x2="2.453" transform="translate(414.177 208.264)" fill="none" stroke="#1a2e35" stroke-linecap="round" stroke-linejoin="round" stroke-width="1"/>
          <path id="Path_7855" data-name="Path 7855" d="M449.575,240.148a1.121,1.121,0,1,1-1.121-1.121,1.121,1.121,0,0,1,1.121,1.121" transform="translate(-33.913 -18.121)" fill="#fff"/>
          <path id="Path_7856" data-name="Path 7856" d="M449.575,240.148a1.121,1.121,0,1,1-1.121-1.121A1.121,1.121,0,0,1,449.575,240.148Z" transform="translate(-33.913 -18.121)" fill="none" stroke="#1a2e35" stroke-linecap="round" stroke-linejoin="round" stroke-width="1"/>
          <path id="Path_7857" data-name="Path 7857" d="M437.211,240.148a1.121,1.121,0,1,1-1.121-1.121,1.121,1.121,0,0,1,1.121,1.121" transform="translate(-32.976 -18.121)" fill="#fff"/>
          <path id="Path_7858" data-name="Path 7858" d="M437.211,240.148a1.121,1.121,0,1,1-1.121-1.121A1.121,1.121,0,0,1,437.211,240.148Z" transform="translate(-32.976 -18.121)" fill="none" stroke="#1a2e35" stroke-linecap="round" stroke-linejoin="round" stroke-width="1"/>
          <line id="Line_63" data-name="Line 63" x2="11.136" transform="translate(403.405 219.367)" fill="#fff"/>
          <line id="Line_64" data-name="Line 64" x2="11.136" transform="translate(403.405 219.367)" fill="none" stroke="#1a2e35" stroke-linecap="round" stroke-linejoin="round" stroke-width="1"/>
          <path id="Path_7859" data-name="Path 7859" d="M144.041,204.016a8.886,8.886,0,0,0-1.65-6.614,9.108,9.108,0,0,0-5.918-3.505.9.9,0,0,0-.642.073.894.894,0,0,0-.24.854,10.726,10.726,0,0,0,2.664,6.077,10.962,10.962,0,0,0,5.775,3.37" transform="translate(-10.279 -14.698)" fill="#aab2c5"/>
          <path id="Path_7860" data-name="Path 7860" d="M130.96,221.127c2.266,4.609,5.52,7.712,9.552,7.863.807.028,1.416-.5,2.186-.541a5.063,5.063,0,0,1,1.29.479,1.785,1.785,0,0,0,.673.151c4.166-.22,7.716-3.115,10.109-7.952,3.332-6.775,2.3-14.053-2.295-16.265a10.939,10.939,0,0,0-1.882-.725,7.827,7.827,0,0,0-2.286-.266,17.334,17.334,0,0,0-5.224,1.167l-.224.081c-3.736-1.628-6.721-1.638-9.614-.258-4.6,2.212-5.619,9.49-2.286,16.265" transform="translate(-9.78 -15.455)" fill="#aab2c5"/>
          <path id="Path_7861" data-name="Path 7861" d="M131.172,214.43a3.473,3.473,0,0,1-.382-1.362,7.2,7.2,0,0,1,.412-3.388,7.293,7.293,0,0,1,1.92-2.84,3.541,3.541,0,0,1,1.188-.789c.031.047-.427.339-1.031.949a7.934,7.934,0,0,0-2.264,6.047c.057.851.213,1.368.158,1.384" transform="translate(-9.911 -15.621)" fill="#fafafa"/>
          <path id="Path_7862" data-name="Path 7862" d="M132.088,218.48c-.086.019-.234-.3-.33-.714s-.106-.765-.02-.785.233.3.33.714.105.765.02.785" transform="translate(-9.983 -16.45)" fill="#fafafa"/>
          <path id="Path_7863" data-name="Path 7863" d="M154.178,192.856c.023.057-.861.383-2.157,1.148a17.215,17.215,0,0,0-2.153,1.515,17.045,17.045,0,0,0-4.078,4.918,16.889,16.889,0,0,0-1.079,2.383c-.5,1.4-.652,2.325-.713,2.314a2.571,2.571,0,0,1,.07-.652,6.319,6.319,0,0,1,.154-.752c.076-.29.146-.626.275-.981a15.01,15.01,0,0,1,1.033-2.448,17.263,17.263,0,0,1,1.815-2.712,17.453,17.453,0,0,1,2.334-2.293,15.479,15.479,0,0,1,2.227-1.484c.328-.195.648-.329.92-.46a6.342,6.342,0,0,1,.717-.3,2.665,2.665,0,0,1,.632-.2" transform="translate(-10.916 -14.621)" fill="#aab2c5"/>
        </g>
      </g>
      <text id="WISHLIST" transform="translate(93.785 148.379)" font-size="12" font-family="Poppins-SemiBold, Poppins" font-weight="600"><tspan x="0" y="0">WISHLIST</tspan></text>
      <g id="Group_8765" data-name="Group 8765">
        <g id="Group_8764" data-name="Group 8764" clip-path="url(#clip-path)">
          <path id="Path_7864" data-name="Path 7864" d="M425.394,342.049H104.506a4.337,4.337,0,0,1-4.337-4.336V273.806a4.337,4.337,0,0,1,4.337-4.336H425.394a4.336,4.336,0,0,1,4.335,4.336v63.907a4.336,4.336,0,0,1-4.335,4.336" transform="translate(-7.594 -20.429)" fill="#fff"/>
          <rect id="Rectangle_2900" data-name="Rectangle 2900" width="329.561" height="72.579" rx="4.692" transform="translate(92.575 249.041)" fill="none" stroke="#1a2e35" stroke-linecap="round" stroke-linejoin="round" stroke-width="1"/>
          <rect id="Rectangle_2901" data-name="Rectangle 2901" width="58.93" height="55.669" transform="translate(101.375 257.495)" fill="#fff"/>
          <rect id="Rectangle_2902" data-name="Rectangle 2902" width="58.93" height="55.669" transform="translate(101.375 257.495)" fill="none" stroke="#1a2e35" stroke-linecap="round" stroke-linejoin="round" stroke-width="1"/>
          <path id="Path_7865" data-name="Path 7865" d="M360.545,294.867H186.68a2.022,2.022,0,1,1,0-4.043H360.545a2.022,2.022,0,0,1,0,4.043" transform="translate(-13.999 -22.048)" fill="#858d9e"/>
          <path id="Path_7866" data-name="Path 7866" d="M405.522,284.242H186.68a2.022,2.022,0,0,1,0-4.043H405.522a2.022,2.022,0,0,1,0,4.043" transform="translate(-13.999 -21.243)" fill="#1a2e35"/>
          <path id="Path_7867" data-name="Path 7867" d="M421.779,324.991a4.25,4.25,0,0,0-4.968,1.82,4.258,4.258,0,0,0-4.946-1.894c-2.866.86-3.887,4.5-1.5,7.843a17.352,17.352,0,0,0,5.918,4.8c.17.09.325.164.452.223.127-.057.283-.129.455-.215a17.313,17.313,0,0,0,5.983-4.711c2.437-3.31,1.465-6.962-1.388-7.865" transform="translate(-31.01 -24.617)" fill="#aab2c5"/>
          <path id="Path_7868" data-name="Path 7868" d="M444.2,333.375h-8.774l-.889-8.65h10.552Z" transform="translate(-32.943 -24.618)" fill="#fff"/>
          <path id="Path_7869" data-name="Path 7869" d="M444.2,333.375h-8.774l-.889-8.65h10.552Z" transform="translate(-32.943 -24.618)" fill="none" stroke="#1a2e35" stroke-linecap="round" stroke-linejoin="round" stroke-width="1"/>
          <line id="Line_65" data-name="Line 65" x2="9.927" transform="translate(401.904 303.058)" fill="#fff"/>
          <line id="Line_66" data-name="Line 66" x2="9.927" transform="translate(401.904 303.058)" fill="none" stroke="#1a2e35" stroke-linecap="round" stroke-linejoin="round" stroke-width="1"/>
          <line id="Line_67" data-name="Line 67" x2="9.291" transform="translate(402.222 305.806)" fill="#fff"/>
          <line id="Line_68" data-name="Line 68" x2="9.291" transform="translate(402.222 305.806)" fill="none" stroke="#1a2e35" stroke-linecap="round" stroke-linejoin="round" stroke-width="1"/>
          <line id="Line_69" data-name="Line 69" x2="0.22" y2="8.65" transform="translate(404.911 300.107)" fill="#fff"/>
          <line id="Line_70" data-name="Line 70" x2="0.22" y2="8.65" transform="translate(404.911 300.107)" fill="none" stroke="#1a2e35" stroke-linecap="round" stroke-linejoin="round" stroke-width="1"/>
          <line id="Line_71" data-name="Line 71" x1="0.263" y2="8.65" transform="translate(408.56 300.107)" fill="#fff"/>
          <line id="Line_72" data-name="Line 72" x1="0.263" y2="8.65" transform="translate(408.56 300.107)" fill="none" stroke="#1a2e35" stroke-linecap="round" stroke-linejoin="round" stroke-width="1"/>
          <line id="Line_73" data-name="Line 73" y1="0.889" x2="2.453" transform="translate(412.092 299.187)" fill="#fff"/>
          <line id="Line_74" data-name="Line 74" y1="0.889" x2="2.453" transform="translate(412.092 299.187)" fill="none" stroke="#1a2e35" stroke-linecap="round" stroke-linejoin="round" stroke-width="1"/>
          <path id="Path_7870" data-name="Path 7870" d="M447.319,338.529a1.122,1.122,0,1,1-1.122-1.121,1.122,1.122,0,0,1,1.122,1.121" transform="translate(-33.742 -25.58)" fill="#fff"/>
          <circle id="Ellipse_93" data-name="Ellipse 93" cx="1.121" cy="1.121" r="1.121" transform="translate(411.334 311.828)" fill="none" stroke="#1a2e35" stroke-linecap="round" stroke-linejoin="round" stroke-width="1"/>
          <path id="Path_7871" data-name="Path 7871" d="M434.954,338.529a1.121,1.121,0,1,1-1.121-1.121,1.121,1.121,0,0,1,1.121,1.121" transform="translate(-32.805 -25.58)" fill="#fff"/>
          <circle id="Ellipse_94" data-name="Ellipse 94" cx="1.121" cy="1.121" r="1.121" transform="translate(399.908 311.828)" fill="none" stroke="#1a2e35" stroke-linecap="round" stroke-linejoin="round" stroke-width="1"/>
          <line id="Line_75" data-name="Line 75" x2="11.136" transform="translate(401.32 310.29)" fill="#fff"/>
          <line id="Line_76" data-name="Line 76" x2="11.136" transform="translate(401.32 310.29)" fill="none" stroke="#1a2e35" stroke-linecap="round" stroke-linejoin="round" stroke-width="1"/>
          <path id="Path_7872" data-name="Path 7872" d="M424.144,438.179H103.256a4.337,4.337,0,0,1-4.336-4.336V369.936a4.337,4.337,0,0,1,4.336-4.336H424.144a4.336,4.336,0,0,1,4.336,4.336v63.907a4.336,4.336,0,0,1-4.336,4.336" transform="translate(-7.499 -27.717)" fill="#fff"/>
          <rect id="Rectangle_2903" data-name="Rectangle 2903" width="329.561" height="72.579" rx="4.692" transform="translate(91.421 337.883)" fill="none" stroke="#1a2e35" stroke-linecap="round" stroke-linejoin="round" stroke-width="1"/>
          <rect id="Rectangle_2904" data-name="Rectangle 2904" width="58.93" height="55.669" transform="translate(100.221 346.338)" fill="#fff"/>
          <rect id="Rectangle_2905" data-name="Rectangle 2905" width="58.93" height="55.669" transform="translate(100.221 346.338)" fill="none" stroke="#1a2e35" stroke-linecap="round" stroke-linejoin="round" stroke-width="1"/>
          <path id="Path_7873" data-name="Path 7873" d="M359.509,389.788H185.218a1.808,1.808,0,0,1-1.809-1.808v-.427a1.808,1.808,0,0,1,1.809-1.809H359.509a1.808,1.808,0,0,1,1.808,1.809v.427a1.807,1.807,0,0,1-1.808,1.808" transform="translate(-13.905 -29.244)" fill="#858d9e"/>
          <path id="Path_7874" data-name="Path 7874" d="M404.486,379.162H185.217a1.807,1.807,0,0,1-1.808-1.808v-.427a1.808,1.808,0,0,1,1.808-1.809H404.486a1.808,1.808,0,0,1,1.808,1.809v.427a1.807,1.807,0,0,1-1.808,1.808" transform="translate(-13.905 -28.439)" fill="#1a2e35"/>
          <path id="Path_7875" data-name="Path 7875" d="M420.53,421.121a4.25,4.25,0,0,0-4.968,1.82,4.258,4.258,0,0,0-4.946-1.894c-2.866.86-3.887,4.5-1.5,7.843a17.353,17.353,0,0,0,5.918,4.8c.17.09.325.164.452.223.127-.057.283-.129.455-.215a17.306,17.306,0,0,0,5.983-4.711c2.437-3.31,1.465-6.961-1.388-7.864" transform="translate(-30.915 -31.905)" fill="#aab2c5"/>
          <path id="Path_7876" data-name="Path 7876" d="M442.948,429.506h-8.774l-.889-8.65h10.552Z" transform="translate(-32.848 -31.906)" fill="#fff"/>
          <path id="Path_7877" data-name="Path 7877" d="M442.948,429.506h-8.774l-.889-8.65h10.552Z" transform="translate(-32.848 -31.906)" fill="none" stroke="#1a2e35" stroke-linecap="round" stroke-linejoin="round" stroke-width="1"/>
          <line id="Line_77" data-name="Line 77" x2="9.927" transform="translate(400.749 391.901)" fill="#fff"/>
          <line id="Line_78" data-name="Line 78" x2="9.927" transform="translate(400.749 391.901)" fill="none" stroke="#1a2e35" stroke-linecap="round" stroke-linejoin="round" stroke-width="1"/>
          <line id="Line_79" data-name="Line 79" x2="9.291" transform="translate(401.067 394.648)" fill="#fff"/>
          <line id="Line_80" data-name="Line 80" x2="9.291" transform="translate(401.067 394.648)" fill="none" stroke="#1a2e35" stroke-linecap="round" stroke-linejoin="round" stroke-width="1"/>
          <line id="Line_81" data-name="Line 81" x2="0.22" y2="8.65" transform="translate(403.756 388.949)" fill="#fff"/>
          <line id="Line_82" data-name="Line 82" x2="0.22" y2="8.65" transform="translate(403.756 388.949)" fill="none" stroke="#1a2e35" stroke-linecap="round" stroke-linejoin="round" stroke-width="1"/>
          <line id="Line_83" data-name="Line 83" x1="0.264" y2="8.65" transform="translate(407.405 388.949)" fill="#fff"/>
          <line id="Line_84" data-name="Line 84" x1="0.264" y2="8.65" transform="translate(407.405 388.949)" fill="none" stroke="#1a2e35" stroke-linecap="round" stroke-linejoin="round" stroke-width="1"/>
          <line id="Line_85" data-name="Line 85" y1="0.889" x2="2.453" transform="translate(410.937 388.029)" fill="#fff"/>
          <line id="Line_86" data-name="Line 86" y1="0.889" x2="2.453" transform="translate(410.937 388.029)" fill="none" stroke="#1a2e35" stroke-linecap="round" stroke-linejoin="round" stroke-width="1"/>
          <path id="Path_7878" data-name="Path 7878" d="M446.069,434.659a1.121,1.121,0,1,1-1.121-1.121,1.121,1.121,0,0,1,1.121,1.121" transform="translate(-33.648 -32.868)" fill="#fff"/>
          <circle id="Ellipse_95" data-name="Ellipse 95" cx="1.121" cy="1.121" r="1.121" transform="translate(410.075 400.787) rotate(-5.655)" fill="none" stroke="#1a2e35" stroke-linecap="round" stroke-linejoin="round" stroke-width="1"/>
          <path id="Path_7879" data-name="Path 7879" d="M433.705,434.659a1.121,1.121,0,1,1-1.121-1.121,1.121,1.121,0,0,1,1.121,1.121" transform="translate(-32.71 -32.868)" fill="#fff"/>
          <circle id="Ellipse_96" data-name="Ellipse 96" cx="1.121" cy="1.121" r="1.121" transform="translate(398.648 400.787) rotate(-5.655)" fill="none" stroke="#1a2e35" stroke-linecap="round" stroke-linejoin="round" stroke-width="1"/>
          <line id="Line_87" data-name="Line 87" x2="11.136" transform="translate(400.165 399.133)" fill="#fff"/>
          <line id="Line_88" data-name="Line 88" x2="11.136" transform="translate(400.165 399.133)" fill="none" stroke="#1a2e35" stroke-linecap="round" stroke-linejoin="round" stroke-width="1"/>
          <path id="Path_7880" data-name="Path 7880" d="M123,258.631s3.621-9.416,4.346-10.381,1.932-3.38,4.1-3.38,6.036.241,7.726-.483,3.862-.724,3.38.725-3.38,1.932-3.38,1.932l12.554.966s-3.622,3.38-5.311,4.1a37.456,37.456,0,0,1-5.312,1.448,20.921,20.921,0,0,1-4.828,2.414,37.716,37.716,0,0,1-4.829.725l-2.655,4.829Z" transform="translate(-9.325 -18.491)" fill="#fff"/>
          <path id="Path_7881" data-name="Path 7881" d="M123,258.631s3.621-9.416,4.346-10.381,1.932-3.38,4.1-3.38,6.036.241,7.726-.483,3.862-.724,3.38.725-3.38,1.932-3.38,1.932l12.554.966s-3.622,3.38-5.311,4.1a37.456,37.456,0,0,1-5.312,1.448,20.921,20.921,0,0,1-4.828,2.414,37.716,37.716,0,0,1-4.829.725l-2.655,4.829Z" transform="translate(-9.325 -18.491)" fill="none" stroke="#1a2e35" stroke-linecap="round" stroke-linejoin="round" stroke-width="1"/>
          <line id="Line_89" data-name="Line 89" x1="5.553" y2="1.448" transform="translate(124.302 228.55)" fill="none" stroke="#1a2e35" stroke-linecap="round" stroke-linejoin="round" stroke-width="1"/>
          <path id="Path_7882" data-name="Path 7882" d="M90.275,213.872l-4.1,7,2.414,5.553,6.76-5.07,3.38-2.414V204.456Z" transform="translate(-6.533 -15.5)" fill="#fff"/>
          <path id="Path_7883" data-name="Path 7883" d="M90.275,213.872l-4.1,7,2.414,5.553,6.76-5.07,3.38-2.414V204.456Z" transform="translate(-6.533 -15.5)" fill="none" stroke="#1a2e35" stroke-linecap="round" stroke-linejoin="round" stroke-width="1"/>
          <path id="Path_7884" data-name="Path 7884" d="M89.566,217.553s1.932-9.9,2.9-11.106,4.828-4.1,6.036-4.346,2.9.482,1.932,1.932a21.24,21.24,0,0,1-4.105,3.621s1.69,4.829.483,7.485A8.6,8.6,0,0,1,92.946,219" transform="translate(-6.79 -15.318)" fill="#fff"/>
          <path id="Path_7885" data-name="Path 7885" d="M89.566,217.553s1.932-9.9,2.9-11.106,4.828-4.1,6.036-4.346,2.9.482,1.932,1.932a21.24,21.24,0,0,1-4.105,3.621s1.69,4.829.483,7.485A8.6,8.6,0,0,1,92.946,219" transform="translate(-6.79 -15.318)" fill="none" stroke="#1a2e35" stroke-linecap="round" stroke-linejoin="round" stroke-width="1"/>
          <path id="Path_7886" data-name="Path 7886" d="M84.669,220.13l4.1,10.381-21,15.935-4.588-16.417Z" transform="translate(-4.79 -16.689)" fill="#aab2c5"/>
          <path id="Path_7887" data-name="Path 7887" d="M75.746,408.319l.812,10.295s-5.418,11.378-4.876,21.4,1.626,39.01,1.626,40.636-2.709,3.522-.812,10.295c.526,1.881,5.147.542,9.752,3.521s10.295,4.877,13.816,4.877,5.419,0,5.419-1.626-5.148-3.793-7.315-5.96a127.79,127.79,0,0,1-9.481-12.19c-.542-1.084,1.9-17.067,3.522-23.3s6.231-21.131,8.126-31.7,2.71-19.233,2.71-19.233Z" transform="translate(-5.431 -30.73)" fill="#fff"/>
          <path id="Path_7888" data-name="Path 7888" d="M75.746,408.319l.812,10.295s-5.418,11.378-4.876,21.4,1.626,39.01,1.626,40.636-2.709,3.522-.812,10.295c.526,1.881,5.147.542,9.752,3.521s10.295,4.877,13.816,4.877,5.419,0,5.419-1.626-5.148-3.793-7.315-5.96a127.79,127.79,0,0,1-9.481-12.19c-.542-1.084,1.9-17.067,3.522-23.3s6.231-21.131,8.126-31.7,2.71-19.233,2.71-19.233Z" transform="translate(-5.431 -30.73)" fill="none" stroke="#1a2e35" stroke-linecap="round" stroke-linejoin="round" stroke-width="1"/>
          <path id="Path_7889" data-name="Path 7889" d="M72.565,497.962l.542,7.314H76.9l1.626-5.959s-4.605-1.626-5.96-1.355" transform="translate(-5.501 -37.749)" fill="#aab2c5"/>
          <path id="Path_7890" data-name="Path 7890" d="M72.565,497.962l.542,7.314H76.9l1.626-5.959S73.92,497.692,72.565,497.962Z" transform="translate(-5.501 -37.749)" fill="none" stroke="#1a2e35" stroke-linecap="round" stroke-linejoin="round" stroke-width="1"/>
          <path id="Path_7891" data-name="Path 7891" d="M96.078,505.519c3.5-.354,5.418,0,5.418-1.626s-5.147-3.792-7.314-5.959a132.949,132.949,0,0,1-8.31-10.46,7.324,7.324,0,0,1-3.88,1.519c-4.064.272-8.669-2.167-8.669-2.167,0,1.626-2.71,3.522-.813,10.295.527,1.882,5.3,1.546,9.019,6.008,3.512,4.213,14.024,2.444,14.549,2.39" transform="translate(-5.446 -36.907)" fill="#aab2c5"/>
          <path id="Path_7892" data-name="Path 7892" d="M96.078,505.519c3.5-.354,5.418,0,5.418-1.626s-5.147-3.792-7.314-5.959a132.949,132.949,0,0,1-8.31-10.46,7.324,7.324,0,0,1-3.88,1.519c-4.064.272-8.669-2.167-8.669-2.167,0,1.626-2.71,3.522-.813,10.295.527,1.882,5.3,1.546,9.019,6.008C85.041,507.342,95.553,505.572,96.078,505.519Z" transform="translate(-5.446 -36.907)" fill="none" stroke="#1a2e35" stroke-linecap="round" stroke-linejoin="round" stroke-width="1"/>
          <path id="Path_7893" data-name="Path 7893" d="M40.54,400.062l.542,15.171s-7.043,9.481-8.4,18.692-5.959,45.241-5.959,48.763-2.167,14.9-1.084,15.712,13.545,0,13.545,0a9.369,9.369,0,0,0,.542-3.793c0-2.709-2.167-11.648-1.626-13.816s2.438-8.94,2.438-8.94,8.4-21.943,11.919-28.715,6.5-16.525,8.4-22.486,3.522-14.357,3.522-14.357Z" transform="translate(-1.921 -30.33)" fill="#fff"/>
          <path id="Path_7894" data-name="Path 7894" d="M40.54,400.062l.542,15.171s-7.043,9.481-8.4,18.692-5.959,45.241-5.959,48.763-2.167,14.9-1.084,15.712,13.545,0,13.545,0a9.369,9.369,0,0,0,.542-3.793c0-2.709-2.167-11.648-1.626-13.816s2.438-8.94,2.438-8.94,8.4-21.943,11.919-28.715,6.5-16.525,8.4-22.486,3.522-14.357,3.522-14.357Z" transform="translate(-1.921 -30.33)" fill="none" stroke="#1a2e35" stroke-linecap="round" stroke-linejoin="round" stroke-width="1"/>
          <path id="Path_7895" data-name="Path 7895" d="M38.042,487.611c-3.763-5.288-9.9-2.062-11.106-1.35-.135,1.395-.212,2.386-.212,2.838,0,3.521-2.167,14.9-1.084,15.712s13.546,0,13.546,0a9.384,9.384,0,0,0,.542-3.793c0-2.566-1.94-10.71-1.686-13.407" transform="translate(-1.921 -36.741)" fill="#aab2c5"/>
          <path id="Path_7896" data-name="Path 7896" d="M38.042,487.611c-3.763-5.288-9.9-2.062-11.106-1.35-.135,1.395-.212,2.386-.212,2.838,0,3.521-2.167,14.9-1.084,15.712s13.546,0,13.546,0a9.384,9.384,0,0,0,.542-3.793C39.728,498.453,37.788,490.308,38.042,487.611Z" transform="translate(-1.921 -36.741)" fill="none" stroke="#1a2e35" stroke-linecap="round" stroke-linejoin="round" stroke-width="1"/>
          <path id="Path_7897" data-name="Path 7897" d="M39.209,505.8c-.542-1.626-4.334-8.127-4.334-8.127l-7.043.271c-2.438,2.71-2.167,7.857-2.167,7.857,1.083.812,13.545,0,13.545,0" transform="translate(-1.945 -37.73)" fill="#858d9e"/>
          <path id="Path_7898" data-name="Path 7898" d="M39.209,505.8c-.542-1.626-4.334-8.127-4.334-8.127l-7.043.271c-2.438,2.71-2.167,7.857-2.167,7.857C26.747,506.612,39.209,505.8,39.209,505.8Z" transform="translate(-1.945 -37.73)" fill="none" stroke="#1a2e35" stroke-linecap="round" stroke-linejoin="round" stroke-width="1"/>
          <path id="Path_7899" data-name="Path 7899" d="M35.053,497.546s-2.438-2.167-4.334-1.355a9.215,9.215,0,0,0-2.709,1.626l.271,8.127h4.876Z" transform="translate(-2.123 -37.604)" fill="#aab2c5"/>
          <path id="Path_7900" data-name="Path 7900" d="M35.053,497.546s-2.438-2.167-4.334-1.355a9.215,9.215,0,0,0-2.709,1.626l.271,8.127h4.876Z" transform="translate(-2.123 -37.604)" fill="none" stroke="#1a2e35" stroke-linecap="round" stroke-linejoin="round" stroke-width="1"/>
          <path id="Path_7901" data-name="Path 7901" d="M35.136,341.13A41.373,41.373,0,0,0,32.7,353.592c-.271,7.043,1.626,41.719,1.626,41.719s13.545,9.21,36.3,10.023,33.321-5.418,33.321-5.418-.542-41.719-3.25-51.743-7.586-14.086-7.586-14.086-10.835,3.25-27.361,2.98a129.683,129.683,0,0,1-27.9-3.25Z" transform="translate(-2.477 -25.307)" fill="#858d9e"/>
          <path id="Path_7902" data-name="Path 7902" d="M42.314,251.386s-6.76,12.554-7.725,21.729,7.966,37.18,7.966,38.146-9.416,25.108-9.416,25.108a136.108,136.108,0,0,0,22.936,7.485c12.072,2.655,24.385.965,26.8.241l3.139-9.416,1.207,7.966s0,.242,3.863-.724,8.692-5.07,8.692-5.07S93.5,322.125,90.359,318.02s-7-13.52-7-13.52l1.448-12.071s10.865,8.932,11.831,9.174,15.934-17.383,19.072-22.453,8.209-18.108,8.209-18.108l-7.243-3.621-2.9,2.9-17.141,18.59s-10.381-11.831-15.451-13.762-14.728-4.828-14.728-4.828L46.9,255.732l1.448-4.1s-.966-2.9-6.036-.241" transform="translate(-2.512 -18.973)" fill="#aab2c5"/>
          <path id="Path_7903" data-name="Path 7903" d="M88.15,295.363l-10.9-6.4,9.927,12Z" transform="translate(-5.857 -21.907)" fill="#1a2e35"/>
          <path id="Path_7904" data-name="Path 7904" d="M88.15,295.363l-10.9-6.4,9.927,12Z" transform="translate(-5.857 -21.907)" fill="none" stroke="#1a2e35" stroke-linecap="round" stroke-linejoin="round" stroke-width="1"/>
          <path id="Path_7905" data-name="Path 7905" d="M64.28,312.058a27.9,27.9,0,0,0,3.326,3.314" transform="translate(-4.873 -23.658)" fill="none" stroke="#1a2e35" stroke-linecap="round" stroke-linejoin="round" stroke-width="1"/>
          <path id="Path_7906" data-name="Path 7906" d="M49.9,286.537s4.656,12.006,11.074,20.784" transform="translate(-3.783 -21.723)" fill="none" stroke="#1a2e35" stroke-linecap="round" stroke-linejoin="round" stroke-width="1"/>
          <path id="Path_7907" data-name="Path 7907" d="M55.466,306.227a70.814,70.814,0,0,0,9.1,11.867" transform="translate(-4.205 -23.216)" fill="none" stroke="#1a2e35" stroke-linecap="round" stroke-linejoin="round" stroke-width="1"/>
          <path id="Path_7908" data-name="Path 7908" d="M74.355,210.424a27.07,27.07,0,0,1,2.173,6.036c.966,3.863,4.346,5.794,5.553,5.553s1.207,2.656.482,4.1a11.768,11.768,0,0,1-1.932,2.656,100.213,100.213,0,0,1-.966,10.14c-.724,4.346-.966,7.725-2.655,7.725H68.32s-.724,3.863-.966,7-.241,3.621-.241,3.621l-19.556-4.587,2.173-6.76s-12.313-5.553-6.277-15.693,20.28-22.936,30.9-19.8" transform="translate(-3.168 -15.916)" fill="#fff"/>
          <path id="Path_7909" data-name="Path 7909" d="M74.355,210.424a27.07,27.07,0,0,1,2.173,6.036c.966,3.863,4.346,5.794,5.553,5.553s1.207,2.656.482,4.1a11.768,11.768,0,0,1-1.932,2.656,100.213,100.213,0,0,1-.966,10.14c-.724,4.346-.966,7.725-2.655,7.725H68.32s-.724,3.863-.966,7-.241,3.621-.241,3.621l-19.556-4.587,2.173-6.76s-12.313-5.553-6.277-15.693S63.733,207.286,74.355,210.424Z" transform="translate(-3.168 -15.916)" fill="none" stroke="#1a2e35" stroke-linecap="round" stroke-linejoin="round" stroke-width="1"/>
          <path id="Path_7910" data-name="Path 7910" d="M70.168,249.623l-4-.323,3.164,5.538Z" transform="translate(-5.016 -18.9)" fill="#1a2e35"/>
          <path id="Path_7911" data-name="Path 7911" d="M70.168,249.623l-4-.323,3.164,5.538Z" transform="translate(-5.016 -18.9)" fill="none" stroke="#1a2e35" stroke-linecap="round" stroke-linejoin="round" stroke-width="1"/>
          <path id="Path_7912" data-name="Path 7912" d="M82.9,236.065a5.024,5.024,0,0,1-4.829.241" transform="translate(-5.919 -17.897)" fill="none" stroke="#1a2e35" stroke-linecap="round" stroke-linejoin="round" stroke-width="1"/>
          <path id="Path_7913" data-name="Path 7913" d="M75.2,219.512s.482-4.587,2.9-4.346" transform="translate(-5.701 -16.312)" fill="none" stroke="#1a2e35" stroke-linecap="round" stroke-linejoin="round" stroke-width="1"/>
          <path id="Path_7914" data-name="Path 7914" d="M79.178,221.771c.408,1.271.378,2.415-.067,2.558s-1.135-.771-1.542-2.041-.378-2.415.067-2.557,1.135.77,1.542,2.04" transform="translate(-5.859 -16.657)" fill="#1a2e35"/>
          <path id="Path_7915" data-name="Path 7915" d="M73.179,202.065l.085.109c2.561,3.322,2.122,7.028.151,10.515-4.013,7.1-16.272,13.7-16.272,19.565s6.174,5.557,6.174,5.557,2.469,5.248-3.705,9.88-18.832,5.866-26.859-2.469a20.352,20.352,0,0,1-4.695-8.363c-2.443-8.129-2.79-17.171.8-24.54,3.008-6.176,6.479-11.181,12.779-14.282,4.938-2.432,12.745-3.035,18.254-2.719a20.085,20.085,0,0,1,7.782,1.89,18.29,18.29,0,0,1,5.506,4.858" transform="translate(-1.986 -14.802)" fill="#858d9e"/>
          <path id="Path_7916" data-name="Path 7916" d="M58.764,246.617a16.544,16.544,0,0,0,3.48-.972" transform="translate(-4.455 -18.623)" fill="none" stroke="#757575" stroke-linecap="round" stroke-linejoin="round" stroke-width="1"/>
          <path id="Path_7917" data-name="Path 7917" d="M68.459,217.382a24.724,24.724,0,0,1-6.213,6.261c-8.511,5.957-17.874,12.2-13.618,17.874a8.027,8.027,0,0,0,6.256,3.146" transform="translate(-3.606 -16.48)" fill="none" stroke="#757575" stroke-linecap="round" stroke-linejoin="round" stroke-width="1"/>
          <path id="Path_7918" data-name="Path 7918" d="M74.06,208.194a20.471,20.471,0,0,1-1.637,4.854" transform="translate(-5.491 -15.784)" fill="none" stroke="#757575" stroke-linecap="round" stroke-linejoin="round" stroke-width="1"/>
          <path id="Path_7919" data-name="Path 7919" d="M51.5,226.26c-1.382,1.917-3.127,4.172-5.223,6.567-5.957,6.809-5.106,20.711,8.228,19.576" transform="translate(-3.241 -17.153)" fill="none" stroke="#757575" stroke-linecap="round" stroke-linejoin="round" stroke-width="1"/>
          <path id="Path_7920" data-name="Path 7920" d="M56.236,219.859s-.628,1.142-1.859,3.017" transform="translate(-4.122 -16.668)" fill="none" stroke="#757575" stroke-linecap="round" stroke-linejoin="round" stroke-width="1"/>
          <path id="Path_7921" data-name="Path 7921" d="M433.236,364.952c2.837,1.239,9.776,1.082,9.782,1.082.072,0-1.492-4.542-1.623-4.818-1.522-3.185-6.337-8.444-10.255-7.915a4.679,4.679,0,0,0-3.755,5.864c.651,2.714,3.435,4.73,5.851,5.786" transform="translate(-32.39 -26.782)" fill="#858d9e"/>
          <path id="Path_7922" data-name="Path 7922" d="M524.188,339.681c-3.931-.424-8.6,4.963-10.038,8.188-.124.279-1.565,4.861-1.492,4.86h.083c-.744.845-1.531,1.759-2.372,2.775-1.538,1.889-3.258,4.037-4.971,6.5a83.111,83.111,0,0,0-5.156,8.213,61.1,61.1,0,0,0-4.4,9.914c-.013.04-.021.084-.035.125.02-1.158-.03-4.4-.063-4.646-.455-3.5-3.388-10-7.277-10.719a4.679,4.679,0,0,0-5.4,4.4c-.227,2.782,1.789,5.565,3.756,7.322,2.217,1.981,8.374,3.9,8.864,4.051a82.992,82.992,0,0,0-2.6,10.739c-.377,2.115-.691,4.258-.98,6.409-.015-1-.035-1.9-.052-2.022-.454-3.5-3.388-10-7.276-10.718a4.677,4.677,0,0,0-5.4,4.4c-.228,2.782,1.788,5.565,3.755,7.322,2,1.782,7.211,3.524,8.6,3.966-.1.826-.213,1.651-.311,2.478-.475,3.968-.93,7.929-1.5,11.8-.2,1.364-.445,2.7-.686,4.039-.014-.89-.033-1.64-.048-1.753-.454-3.5-3.388-10-7.275-10.718a4.679,4.679,0,0,0-5.4,4.4c-.228,2.781,1.789,5.565,3.756,7.321,1.9,1.7,6.7,3.352,8.348,3.885-.288,1.362-.575,2.728-.916,4.036-.253.888-.435,1.76-.738,2.638q-.424,1.311-.839,2.6c-.594,1.633-1.2,3.321-1.815,4.9-.422,1.1-.847,2.142-1.269,3.192.213-1.356.577-4.019.582-4.245a18.172,18.172,0,0,0-2.437-8.838,5.46,5.46,0,0,0-.065-1.034,4.678,4.678,0,0,0-5.721-3.969c-3.821,1.018-6.243,7.723-6.424,11.248-.01.209.126,2.478.235,3.908-.192-.831-.37-1.639-.578-2.493-.4-1.69-.851-3.364-1.327-5.168q-.391-1.295-.791-2.615c-.245-.878-.616-1.774-.923-2.672-.755-2.066-1.622-4.123-2.54-6.175,1.479-.355,6.711-1.689,8.813-3.3s4.31-4.232,4.291-7.022a4.679,4.679,0,0,0-5.053-4.79c-3.931.427-7.342,6.688-8.055,10.146-.043.215-.276,2.754-.378,4.151-.562-1.229-1.116-2.459-1.725-3.685-1.756-3.538-3.644-7.065-5.513-10.59-.572-1.08-1.13-2.163-1.693-3.245.528-.12,6.783-1.572,9.137-3.378,2.091-1.6,4.31-4.231,4.29-7.022A4.677,4.677,0,0,0,462.121,384c-3.931.426-7.342,6.687-8.055,10.145-.053.261-.383,3.914-.421,4.846-1.237-2.383-2.449-4.769-3.549-7.17a82.523,82.523,0,0,1-3.858-9.965c.247-.056,6.78-1.542,9.191-3.391,2.092-1.605,4.311-4.232,4.291-7.023a4.678,4.678,0,0,0-5.053-4.789c-3.93.426-7.341,6.688-8.054,10.146-.055.272-.409,4.2-.421,4.919-.061-.2-.146-.4-.2-.593a60.3,60.3,0,0,1-2-10.523c-.221-1.963-.322-3.852-.379-5.692,1.246-.152,6.93-.908,9.283-2.334,2.257-1.366,4.75-3.733,5.037-6.508a4.678,4.678,0,0,0-4.5-5.316c-3.954-.007-8.031,5.842-9.12,9.2-.06.183-.457,2.106-.725,3.511-.013-.831-.043-1.688-.039-2.484.006-2.99.194-5.727.382-8.15.117-1.377.251-2.62.389-3.781,1.143-.787,5.716-4.015,7.122-6.321,1.373-2.251,2.5-5.5,1.471-8.1a4.679,4.679,0,0,0-6.441-2.647c-3.512,1.815-4.436,8.885-3.856,12.368.051.3,1.378,4.917,1.438,4.877l.068-.047c-.154,1.115-.307,2.312-.447,3.623-.24,2.424-.49,5.164-.56,8.166a83.159,83.159,0,0,0,.231,9.694,60.994,60.994,0,0,0,1.8,10.7c.011.042.029.083.04.125-.622-.978-2.453-3.651-2.616-3.841-2.31-2.67-8.342-6.47-11.981-4.926a4.68,4.68,0,0,0-2.073,6.648c1.345,2.445,4.563,3.654,7.172,4.035,2.943.429,9.136-1.367,9.628-1.512a82.8,82.8,0,0,0,3.756,10.393c.851,1.972,1.771,3.932,2.717,5.885-.565-.827-1.076-1.563-1.158-1.658-2.31-2.67-8.343-6.471-11.981-4.925a4.678,4.678,0,0,0-2.074,6.647c1.344,2.445,4.564,3.655,7.172,4.035,2.648.386,7.958-1.039,9.359-1.435.371.746.733,1.494,1.107,2.238,1.793,3.571,3.6,7.126,5.261,10.668.587,1.248,1.119,2.5,1.656,3.748-.5-.735-.932-1.348-1.007-1.436-2.31-2.669-8.342-6.47-11.981-4.925a4.679,4.679,0,0,0-2.073,6.647c1.345,2.446,4.563,3.656,7.172,4.036,2.527.368,7.441-.9,9.107-1.366.511,1.3,1.026,2.593,1.462,3.871.279.881.609,1.708.839,2.607q.372,1.329.734,2.631c.406,1.688.834,3.43,1.188,5.087.255,1.152.477,2.253.7,3.362-.57-1.249-1.737-3.67-1.858-3.862-1.878-2.989-7.265-7.659-11.1-6.683a4.678,4.678,0,0,0-3.055,6.256c.958,2.621,3.956,4.3,6.477,5.076,2.777.848,8.923.073,9.691-.03.368,1.836.709,3.627,1,5.321.449,2.55.819,4.9,1.131,7.052h-3.584v42.8h17.012v-42.8H480.74c.67-1.539,1.366-3.176,2.083-4.931s1.463-3.653,2.2-5.6c.743.155,6.828,1.391,9.664.75,2.571-.581,5.687-2.036,6.838-4.578a4.679,4.679,0,0,0-2.582-6.467c-3.748-1.259-9.468,3-11.563,5.838-.125.167-1.262,2.136-1.96,3.389.3-.8.6-1.571.893-2.4.6-1.63,1.148-3.274,1.744-5.041q.388-1.295.784-2.616c.279-.869.465-1.821.7-2.738.51-2.14.922-4.333,1.288-6.552,1.429.52,6.529,2.295,9.173,2.109s5.929-1.152,7.452-3.491a4.678,4.678,0,0,0-1.572-6.783c-3.514-1.812-9.813,1.529-12.315,4.019-.156.154-1.75,2.143-2.605,3.253.21-1.335.425-2.667.593-4.026.487-3.919.857-7.9,1.245-11.874.117-1.217.25-2.428.378-3.64.506.19,6.523,2.431,9.483,2.223,2.629-.184,5.93-1.151,7.452-3.49a4.678,4.678,0,0,0-1.572-6.783c-3.514-1.812-9.812,1.529-12.315,4.018-.188.188-2.479,3.053-3.026,3.81.283-2.672.589-5.33,1-7.939a82.481,82.481,0,0,1,2.279-10.441c.236.09,6.505,2.456,9.536,2.243,2.631-.185,5.93-1.152,7.454-3.49a4.68,4.68,0,0,0-1.573-6.784c-3.514-1.811-9.812,1.53-12.315,4.019-.2.2-2.659,3.279-3.066,3.871.059-.2.1-.411.158-.608a60.285,60.285,0,0,1,4.137-9.88c.9-1.76,1.857-3.391,2.824-4.957,1.123.561,6.281,3.066,9.029,3.176,2.635.105,6.021-.493,7.791-2.651a4.678,4.678,0,0,0-.817-6.914c-3.294-2.188-9.921.442-12.683,2.641-.15.12-1.541,1.506-2.54,2.529.447-.7.9-1.431,1.337-2.093,1.654-2.491,3.322-4.669,4.815-6.587.858-1.083,1.654-2.047,2.409-2.94,1.388-.024,6.982-.194,9.429-1.342,2.386-1.121,5.116-3.212,5.693-5.943a4.679,4.679,0,0,0-3.912-5.76M480.665,445.289c-.918,2.113-1.8,4.053-2.636,5.842h-5.935c-.376-2.264-.821-4.762-1.362-7.483-.366-1.867-.795-3.854-1.255-5.89a50.87,50.87,0,0,0,5.407-2.542c2.024,2.191,7.209,4.756,7.88,5.082-.705,1.736-1.408,3.416-2.1,4.992" transform="translate(-32.438 -25.131)" fill="#858d9e"/>
          <path id="Path_7923" data-name="Path 7923" d="M508.889,366.118c.061.039,1.262-4.613,1.3-4.914.486-3.5-.628-10.539-4.188-12.259a4.678,4.678,0,0,0-6.366,2.82c-.955,2.622.255,5.841,1.689,8.054,1.682,2.6,7.556,6.3,7.561,6.3" transform="translate(-37.853 -26.421)" fill="#858d9e"/>
          <line id="Line_90" data-name="Line 90" x2="13.737" transform="translate(494.201 468.487)" fill="none" stroke="#1a2e35" stroke-linecap="round" stroke-linejoin="round" stroke-width="1"/>
          <line id="Line_91" data-name="Line 91" x2="5.416" transform="translate(482.468 468.487)" fill="none" stroke="#1a2e35" stroke-linecap="round" stroke-linejoin="round" stroke-width="1"/>
          <line id="Line_92" data-name="Line 92" x2="474.495" transform="translate(4.062 468.487)" fill="none" stroke="#1a2e35" stroke-linecap="round" stroke-linejoin="round" stroke-width="1"/>
          <path id="Path_7924" data-name="Path 7924" d="M426.079,78c-.655-18.808,17.036-34.691,39.515-35.474s41.233,13.829,41.889,32.637c.6,17.328-14.369,32.162-34.307,35-1.572,10.285,3.285,15.071,3.285,15.071a26.592,26.592,0,0,1-14.8-14.788C442.081,108.6,426.672,95.022,426.079,78" transform="translate(-32.301 -3.222)" fill="#fff"/>
          <path id="Path_7925" data-name="Path 7925" d="M426.079,78c-.655-18.808,17.036-34.691,39.515-35.474s41.233,13.829,41.889,32.637c.6,17.328-14.369,32.162-34.307,35-1.572,10.285,3.285,15.071,3.285,15.071a26.592,26.592,0,0,1-14.8-14.788C442.081,108.6,426.672,95.022,426.079,78Z" transform="translate(-32.301 -3.222)" fill="none" stroke="#1a2e35" stroke-linecap="round" stroke-linejoin="round" stroke-width="1"/>
          <path id="Path_7926" data-name="Path 7926" d="M458.454,65.921c5.608-1.6,8.922,1.893,10.4,4.127,1.567-2.176,5.024-5.542,10.566-3.725,6.013,1.981,7.967,9.73,2.742,16.671-3.766,4.99-9.737,8.339-12.785,9.816-.365.179-.7.327-.968.445-.265-.128-.592-.289-.949-.481-2.991-1.593-8.829-5.169-12.39-10.3-4.967-7.137-2.706-14.8,3.379-16.553" transform="translate(-34.294 -4.967)" fill="#aab2c5"/>
          <path id="Path_7927" data-name="Path 7927" d="M158.286,400.428a1.864,1.864,0,0,0-1.781.21,3.687,3.687,0,0,0-.393.287,24.378,24.378,0,0,1-14.873,4.765c-10.409,0-19.028-5.834-20.573-13.458v-1.442a1.036,1.036,0,1,0-2.073,0v4.038a1.042,1.042,0,0,0,.055.274,12.5,12.5,0,0,0-1.1,5.036c0,8.8,9.321,15.947,20.842,15.947,9.661,0,17.8-5.027,20.16-11.862a.186.186,0,0,0,.052-.1,4.22,4.22,0,0,0,.447-1.754,2,2,0,0,0-.76-1.937" transform="translate(-8.911 -29.548)" fill="#aab2c5"/>
          <g id="Group_8763" data-name="Group 8763" transform="translate(110.979 366.618)" opacity="0.3">
            <g id="Group_8762" data-name="Group 8762">
              <g id="Group_8761" data-name="Group 8761" clip-path="url(#clip-path-4)">
                <path id="Path_7928" data-name="Path 7928" d="M120.083,396.692s9.809,22.577,36.395,6.754c0,0-6.856,7.114-15.791,8.844-8.072,1.563-20.056-2.994-20.6-15.6" transform="translate(-120.083 -396.692)"/>
              </g>
            </g>
          </g>
          <path id="Path_7929" data-name="Path 7929" d="M162.227,402.427c-.165.391-.8.5-1.42.237s-.984-.793-.82-1.183.8-.5,1.42-.236.985.79.82,1.182" transform="translate(-12.126 -30.408)" fill="#1a2e35"/>
          <path id="Path_7930" data-name="Path 7930" d="M148.586,301.872a.18.18,0,0,0,.006.032v21.782c0,.955-.768,1.943-2.185,2.689a13.23,13.23,0,0,1-6.049,1.262h-.032c-5.155-.011-8.235-2.037-8.235-3.952V301.9a.18.18,0,0,0,.006-.032c0-.011-.006-.027-.006-.043.011-2.13,1.576-4.353,3.151-6.549a9.3,9.3,0,0,0,1.36-4.82c.006-.148.011-.28.011-.4h-.142a1.151,1.151,0,0,1-1.229-1.055v-.922a1.151,1.151,0,0,1,1.229-1.059h7.739a1.251,1.251,0,0,1,1.137.642.988.988,0,0,1,.093.417v.922a1.151,1.151,0,0,1-1.23,1.055h-.142c0,.12.006.252.011.4a9.3,9.3,0,0,0,1.361,4.82c1.576,2.2,3.139,4.419,3.151,6.549,0,.017-.006.032-.006.043" transform="translate(-10.014 -21.76)" fill="#fafafa"/>
          <path id="Path_7931" data-name="Path 7931" d="M148.571,301.859s0-.075-.019-.223a5.633,5.633,0,0,0-.088-.649,8.447,8.447,0,0,0-.911-2.351,32.475,32.475,0,0,0-2.237-3.37,9.547,9.547,0,0,1-1.379-5.22l0-.129.12.011a1.107,1.107,0,0,0,1.239-.826c.017-.275,0-.615.006-.926a.868.868,0,0,0-.316-.759,1.232,1.232,0,0,0-.836-.273l-1.015,0-2.1.006-4.458.011a1.215,1.215,0,0,0-.952.337.842.842,0,0,0-.225.435,5.272,5.272,0,0,0-.012.567c0,.19,0,.419.007.579a.822.822,0,0,0,.215.449,1.214,1.214,0,0,0,.992.351l.165-.009,0,.172a13.268,13.268,0,0,1-.29,2.656,7.348,7.348,0,0,1-1.043,2.569,20.992,20.992,0,0,0-2.857,4.833,5.786,5.786,0,0,0-.3,1.384c-.024.462-.013.975-.016,1.465q0,1.487,0,3,0,3.033,0,6.166c0,3.668,0,7.249,0,10.709a6.512,6.512,0,0,0,.055,1.245,2.391,2.391,0,0,0,.577,1.03,5.747,5.747,0,0,0,2.005,1.366,13.518,13.518,0,0,0,4.695.965,16.275,16.275,0,0,0,4.564-.412,7.192,7.192,0,0,0,3.72-1.989,2.531,2.531,0,0,0,.484-.859,3.266,3.266,0,0,0,.079-.982q0-1.023.006-2.007.006-1.967.012-3.773c.024-4.793.043-8.677.057-11.385.014-1.329.026-2.368.033-3.1.009-.707.03-1.079.03-1.079a7.948,7.948,0,0,1,.043,1.079c.007.728.019,1.767.033,3.1.014,2.708.033,6.592.057,11.385q.006,1.8.012,3.773,0,.984.006,2.007a3.536,3.536,0,0,1-.088,1.067,2.839,2.839,0,0,1-.535.964,7.461,7.461,0,0,1-3.872,2.105,16.568,16.568,0,0,1-4.655.437,13.819,13.819,0,0,1-4.818-.981,6.062,6.062,0,0,1-2.13-1.45,2.735,2.735,0,0,1-.656-1.178,6.684,6.684,0,0,1-.067-1.328c0-3.459,0-7.04,0-10.709q0-3.129,0-6.166,0-1.517,0-3c0-.5-.008-.976.018-1.493a6.116,6.116,0,0,1,.323-1.469,21.16,21.16,0,0,1,2.909-4.913,9.488,9.488,0,0,0,1.288-5.033l.162.162a1.539,1.539,0,0,1-1.228-.459,1.147,1.147,0,0,1-.294-.627c-.016-.238,0-.411-.007-.618a5.014,5.014,0,0,1,.019-.621,1.142,1.142,0,0,1,.309-.6,1.526,1.526,0,0,1,1.176-.429l4.458.011,2.1.006,1.015,0a1.5,1.5,0,0,1,1.006.341,1.134,1.134,0,0,1,.4.958c-.006.326.008.616-.015.96a1.345,1.345,0,0,1-1.485,1.028l.117-.117a9.414,9.414,0,0,0,1.295,5.114,31.063,31.063,0,0,1,2.2,3.415,8.114,8.114,0,0,1,.863,2.4,4.29,4.29,0,0,1,.056.66.535.535,0,0,1-.014.224" transform="translate(-9.999 -21.747)" fill="#1a2e35"/>
          <path id="Path_7932" data-name="Path 7932" d="M144.012,290.236a16.6,16.6,0,0,1-3.445.18,16.6,16.6,0,0,1-3.445-.18,16.6,16.6,0,0,1,3.445-.18,16.6,16.6,0,0,1,3.445.18" transform="translate(-10.395 -21.99)" fill="#1a2e35"/>
          <path id="Path_7933" data-name="Path 7933" d="M147.953,306.132a2.473,2.473,0,0,0-2.361.1,8.847,8.847,0,0,1-2.264.981,4.354,4.354,0,0,1-2.768-.708,17.144,17.144,0,0,0-2.567-1.4,4.993,4.993,0,0,0-5.15,1.213v18.7s1.028,3.191,8.261,2.689,6.664-3.693,6.664-3.693Z" transform="translate(-10.071 -23.11)" fill="#aab2c5"/>
        </g>
      </g>
    </g>
  </g>
</svg>
