<svg xmlns="http://www.w3.org/2000/svg" xmlns:xlink="http://www.w3.org/1999/xlink" width="512" height="512" viewBox="0 0 512 512">
  <defs>
    <clipPath id="clip-path">
      <rect id="Rectangle_2994" data-name="Rectangle 2994" width="510.821" height="498.867" fill="none"/>
    </clipPath>
    <clipPath id="clip-path-3">
      <rect id="Rectangle_2960" data-name="Rectangle 2960" width="95.763" height="79.123" fill="none"/>
    </clipPath>
    <clipPath id="clip-path-4">
      <rect id="Rectangle_2963" data-name="Rectangle 2963" width="37.944" height="79.126" fill="none"/>
    </clipPath>
    <clipPath id="clip-path-5">
      <rect id="Rectangle_2967" data-name="Rectangle 2967" width="36.892" height="79.121" fill="none"/>
    </clipPath>
    <clipPath id="clip-path-6">
      <rect id="Rectangle_2968" data-name="Rectangle 2968" width="61.088" height="68.221" fill="none"/>
    </clipPath>
    <clipPath id="clip-path-7">
      <rect id="Rectangle_2970" data-name="Rectangle 2970" width="48.494" height="51.7" fill="none"/>
    </clipPath>
    <clipPath id="clip-path-8">
      <rect id="Rectangle_2971" data-name="Rectangle 2971" width="38.542" height="62.821" fill="none"/>
    </clipPath>
    <clipPath id="clip-path-9">
      <rect id="Rectangle_2972" data-name="Rectangle 2972" width="54.253" height="62.535" fill="none"/>
    </clipPath>
    <clipPath id="clip-path-10">
      <rect id="Rectangle_2973" data-name="Rectangle 2973" width="6.908" height="17.427" fill="none"/>
    </clipPath>
    <clipPath id="clip-path-11">
      <rect id="Rectangle_2976" data-name="Rectangle 2976" width="122.08" height="92.562" fill="none"/>
    </clipPath>
    <clipPath id="clip-path-12">
      <rect id="Rectangle_2978" data-name="Rectangle 2978" width="53.407" height="71.528" fill="none"/>
    </clipPath>
    <clipPath id="clip-path-13">
      <rect id="Rectangle_2988" data-name="Rectangle 2988" width="73.029" height="26.022" fill="none"/>
    </clipPath>
    <clipPath id="clip-path-14">
      <rect id="Rectangle_2989" data-name="Rectangle 2989" width="48.167" height="17.55" fill="none"/>
    </clipPath>
    <clipPath id="clip-path-15">
      <rect id="Rectangle_2990" data-name="Rectangle 2990" width="42.002" height="23.872" fill="none"/>
    </clipPath>
    <clipPath id="clip-path-16">
      <rect id="Rectangle_2991" data-name="Rectangle 2991" width="54.5" height="59.614" fill="none"/>
    </clipPath>
    <clipPath id="clip-No_product_found">
      <rect width="512" height="512"/>
    </clipPath>
  </defs>
  <g id="No_product_found" clip-path="url(#clip-No_product_found)">
    <rect width="512" height="512" fill="#fff"/>
    <g id="Group_8867" data-name="Group 8867" transform="translate(1.179 6.566)">
      <g id="Group_8866" data-name="Group 8866" clip-path="url(#clip-path)">
        <g id="Group_8865" data-name="Group 8865">
          <g id="Group_8864" data-name="Group 8864" clip-path="url(#clip-path)">
            <path id="Path_8187" data-name="Path 8187" d="M10.334,273.227s2.9,89.859,77.91,149.752S267.2,487.16,351.347,492.85,500.126,450.9,509.867,378.9s-54.558-93.146-89.444-175.113S388.641,94.872,314.826,44.458,125.54,25,65,111.366,10.334,273.227,10.334,273.227" transform="translate(-0.946 -1.878)" fill="#f1f3f9"/>
            <path id="Path_8188" data-name="Path 8188" d="M10.334,273.227s2.9,89.859,77.91,149.752S267.2,487.16,351.347,492.85,500.126,450.9,509.867,378.9s-54.558-93.146-89.444-175.113S388.641,94.872,314.826,44.458,125.54,25,65,111.366,10.334,273.227,10.334,273.227Z" transform="translate(-0.946 -1.878)" fill="none" stroke="#b5bccc" stroke-miterlimit="10" stroke-width="2"/>
            <line id="Line_100" data-name="Line 100" x2="13.482" transform="translate(481.494 451.117)" fill="none" stroke="#1a2e35" stroke-linecap="round" stroke-linejoin="round" stroke-width="1"/>
            <line id="Line_101" data-name="Line 101" x2="5.315" transform="translate(469.978 451.117)" fill="none" stroke="#1a2e35" stroke-linecap="round" stroke-linejoin="round" stroke-width="1"/>
            <line id="Line_102" data-name="Line 102" x2="465.686" transform="translate(0.454 451.117)" fill="none" stroke="#1a2e35" stroke-linecap="round" stroke-linejoin="round" stroke-width="1"/>
            <rect id="Rectangle_2945" data-name="Rectangle 2945" width="25.44" height="10.75" transform="translate(416.133 315.054)" fill="#aab2c5"/>
            <rect id="Rectangle_2946" data-name="Rectangle 2946" width="25.44" height="10.75" transform="translate(430.324 328.609)" fill="#fff"/>
            <rect id="Rectangle_2947" data-name="Rectangle 2947" width="25.44" height="10.75" transform="translate(430.324 328.609)" fill="none" stroke="#1a2e35" stroke-miterlimit="10" stroke-width="1"/>
            <path id="Path_8189" data-name="Path 8189" d="M267.825,256.582c7.332-.147,18.208-.388,25.44-.4l-.4.4-.049-10.75.454.453c-7.506-.014-18.044-.078-25.44-.2l.248-.248c-.067,3.069-.167,7.621-.248,10.75m0,0c-.043-3.3-.23-7.728-.249-11,7.46-.141,18.12-.179,25.69-.208l.454,0,0,.455-.049,10.75,0,.407-.4,0c-7.254,0-18.093-.27-25.44-.4" transform="translate(-24.876 -22.812)" fill="#ececec"/>
            <rect id="Rectangle_2948" data-name="Rectangle 2948" width="25.44" height="10.75" transform="translate(257.141 236.576)" fill="#aab2c5"/>
            <path id="Path_8190" data-name="Path 8190" d="M251.941,271.527c7.332-.147,18.208-.388,25.44-.4l-.4.4-.049-10.75.454.453c-7.506-.015-18.044-.078-25.44-.205l.248-.248c-.067,3.069-.167,7.621-.248,10.75m0,0c-.043-3.3-.23-7.728-.249-11,7.461-.141,18.12-.179,25.69-.209l.454,0,0,.455-.049,10.75,0,.407-.4,0c-7.254,0-18.093-.27-25.44-.4" transform="translate(-23.399 -24.202)" fill="#ececec"/>
            <rect id="Rectangle_2949" data-name="Rectangle 2949" width="25.44" height="10.75" transform="translate(282.123 100.413)" fill="#aab2c5"/>
            <path id="Path_8191" data-name="Path 8191" d="M86.677,72.941c7.332-.147,18.208-.388,25.44-.4l-.4.4-.049-10.75.454.453c-7.506-.015-18.044-.078-25.44-.2l.248-.248c-.067,3.069-.167,7.621-.248,10.75m0,0c-.043-3.3-.23-7.728-.249-11,7.461-.142,18.12-.179,25.69-.209l.454,0,0,.455-.049,10.75,0,.407-.4,0c-7.254,0-18.093-.27-25.44-.4" transform="translate(-8.035 -5.74)" fill="#ececec"/>
            <path id="Path_8192" data-name="Path 8192" d="M88.42,484.386q3.965-8.165,7.858-16.381l7.743-16.464,7.644-16.535q3.8-8.282,7.528-16.619-3.966,8.163-7.858,16.38l-7.743,16.464-7.643,16.535q-3.8,8.282-7.529,16.619" transform="translate(-8.22 -38.897)" fill="#aab2c5"/>
            <path id="Path_8193" data-name="Path 8193" d="M88.42,418.388q3.729,8.335,7.529,16.619l7.643,16.535,7.743,16.464q3.888,8.219,7.858,16.38-3.728-8.336-7.528-16.619l-7.644-16.535-7.743-16.464q-3.89-8.219-7.858-16.381" transform="translate(-8.22 -38.897)" fill="#aab2c5"/>
            <path id="Path_8194" data-name="Path 8194" d="M88.42,352.388q3.965-7.6,7.858-15.253l7.743-15.329,7.644-15.4q3.8-7.71,7.528-15.473-3.966,7.6-7.858,15.251l-7.743,15.33-7.643,15.4q-3.8,7.71-7.529,15.473" transform="translate(-8.22 -27.048)" fill="#aab2c5"/>
            <path id="Path_8195" data-name="Path 8195" d="M88.42,290.938q3.729,7.761,7.529,15.473l7.643,15.4,7.743,15.33q3.888,7.652,7.858,15.251-3.728-7.761-7.528-15.473l-7.644-15.4-7.743-15.329q-3.89-7.653-7.858-15.253" transform="translate(-8.22 -27.048)" fill="#aab2c5"/>
            <rect id="Rectangle_2950" data-name="Rectangle 2950" width="7.673" height="7.673" transform="translate(117.984 317.785)" fill="#fff"/>
            <rect id="Rectangle_2951" data-name="Rectangle 2951" width="69.12" height="66.958" transform="translate(377.96 383.801)" fill="#aab2c5"/>
            <rect id="Rectangle_2952" data-name="Rectangle 2952" width="35.691" height="66.961" transform="translate(342.27 383.802)" fill="#c8c8c8"/>
            <path id="Path_8196" data-name="Path 8196" d="M448.336,439.682H450.9l.628-1.273.88,1.273,1.194-2.622,1.131,2.622h4.712l.533-1.75.5,1.75h.961V423.14h-13.1Z" transform="translate(-41.681 -39.339)" fill="#fff"/>
            <path id="Path_8197" data-name="Path 8197" d="M380.063,486.525q3.963-7.3,7.857-14.642l7.743-14.716,7.644-14.779q3.8-7.4,7.528-14.854-3.966,7.3-7.858,14.641l-7.743,14.716-7.643,14.78q-3.8,7.4-7.528,14.854" transform="translate(-35.334 -39.747)" fill="#858d9e"/>
            <path id="Path_8198" data-name="Path 8198" d="M380.063,427.534q3.728,7.45,7.528,14.854l7.643,14.781,7.743,14.716q3.888,7.346,7.858,14.641-3.728-7.45-7.528-14.854l-7.644-14.78-7.743-14.715q-3.89-7.347-7.857-14.642" transform="translate(-35.334 -39.747)" fill="#858d9e"/>
            <path id="Path_8199" data-name="Path 8199" d="M89.15,221.354H201.61V57.938H89.15ZM197.46,217.2H93.3V62.088H197.46Z" transform="translate(-8.288 -5.386)" fill="#aab2c5"/>
            <rect id="Rectangle_2953" data-name="Rectangle 2953" width="104.16" height="155.116" transform="translate(85.012 56.701)" fill="#fff"/>
            <rect id="Rectangle_2954" data-name="Rectangle 2954" width="104.161" height="4.149" transform="translate(85.008 136.986)" fill="#aab2c5"/>
            <rect id="Rectangle_2955" data-name="Rectangle 2955" width="127.741" height="11.908" transform="translate(73.218 215.965)" fill="#858d9e"/>
            <path id="Path_8200" data-name="Path 8200" d="M84.455,256l120.971,2.533v-7.3H84.455Z" transform="translate(-7.852 -23.357)" fill="#aab2c5"/>
            <path id="Path_8201" data-name="Path 8201" d="M93.721,62.508H197.882V169.081H93.721ZM194.04,66.35H97.563v98.889H194.04Z" transform="translate(-8.713 -5.811)" fill="#858d9e"/>
            <rect id="Rectangle_2956" data-name="Rectangle 2956" width="2.074" height="102.731" transform="translate(153.852 56.697)" fill="#858d9e"/>
            <rect id="Rectangle_2957" data-name="Rectangle 2957" width="2.074" height="102.731" transform="translate(118.252 56.697)" fill="#858d9e"/>
            <rect id="Rectangle_2958" data-name="Rectangle 2958" width="95.763" height="79.122" transform="translate(249.568 371.607)" fill="#aab2c5"/>
            <g id="Group_8824" data-name="Group 8824" transform="translate(249.569 371.606)" opacity="0.1">
              <g id="Group_8823" data-name="Group 8823">
                <g id="Group_8822" data-name="Group 8822" clip-path="url(#clip-path-3)">
                  <rect id="Rectangle_2959" data-name="Rectangle 2959" width="95.763" height="79.122" transform="translate(-0.001 0.001)"/>
                </g>
              </g>
            </g>
            <rect id="Rectangle_2961" data-name="Rectangle 2961" width="37.945" height="79.126" transform="translate(345.33 371.607)" fill="#aab2c5"/>
            <g id="Group_8827" data-name="Group 8827" transform="translate(345.331 371.607)" opacity="0.2">
              <g id="Group_8826" data-name="Group 8826">
                <g id="Group_8825" data-name="Group 8825" clip-path="url(#clip-path-4)">
                  <rect id="Rectangle_2962" data-name="Rectangle 2962" width="37.945" height="79.126" transform="translate(-0.001)"/>
                </g>
              </g>
            </g>
            <path id="Path_8202" data-name="Path 8202" d="M416.326,483.93q-4.215-8.439-8.354-16.933l-8.232-17.019-8.127-17.093q-4.044-8.561-8-17.179,4.216,8.439,8.355,16.933l8.231,17.019,8.126,17.094q4.044,8.559,8,17.178" transform="translate(-35.664 -38.648)" fill="#aab2c5"/>
            <path id="Path_8203" data-name="Path 8203" d="M416.326,415.706q-3.965,8.616-8,17.178l-8.126,17.094L391.964,467q-4.136,8.5-8.355,16.933,3.963-8.618,8-17.179l8.127-17.093,8.232-17.019q4.135-8.5,8.354-16.933" transform="translate(-35.664 -38.648)" fill="#aab2c5"/>
            <path id="Path_8204" data-name="Path 8204" d="M334.016,426.794h-2.649l-.649-1.317-.909,1.317-1.234-2.71-1.169,2.71h-4.871l-.551-1.809-.52,1.809h-.992V409.7h13.544Z" transform="translate(-29.794 -38.089)" fill="#fff"/>
            <rect id="Rectangle_2964" data-name="Rectangle 2964" width="71.447" height="79.118" transform="translate(279.658 292.485)" fill="#aab2c5"/>
            <rect id="Rectangle_2965" data-name="Rectangle 2965" width="36.892" height="79.121" transform="translate(351.105 292.485)" fill="#aab2c5"/>
            <g id="Group_8830" data-name="Group 8830" transform="translate(351.105 292.485)" opacity="0.1">
              <g id="Group_8829" data-name="Group 8829">
                <g id="Group_8828" data-name="Group 8828" clip-path="url(#clip-path-5)">
                  <rect id="Rectangle_2966" data-name="Rectangle 2966" width="36.892" height="79.121"/>
                </g>
              </g>
            </g>
            <g id="Group_8833" data-name="Group 8833" transform="translate(284.782 297.935)" opacity="0.1">
              <g id="Group_8832" data-name="Group 8832">
                <g id="Group_8831" data-name="Group 8831" clip-path="url(#clip-path-6)">
                  <path id="Path_8205" data-name="Path 8205" d="M375.06,396.694q-7.869-8.44-15.6-16.932l-15.371-17.018-15.175-17.092q-7.55-8.559-14.944-17.178,7.874,8.44,15.6,16.932l15.37,17.018,15.172,17.093q7.551,8.559,14.946,17.177" transform="translate(-313.972 -328.473)"/>
                  <path id="Path_8206" data-name="Path 8206" d="M375.06,328.473q-7.4,8.615-14.946,17.177l-15.172,17.094-15.37,17.017q-7.722,8.5-15.6,16.932,7.4-8.615,14.944-17.178l15.175-17.091,15.371-17.019q7.72-8.494,15.6-16.932" transform="translate(-313.972 -328.473)"/>
                </g>
              </g>
            </g>
            <rect id="Rectangle_2969" data-name="Rectangle 2969" width="6.464" height="9.127" transform="translate(376.339 358.217)" fill="#fff"/>
            <path id="Path_8207" data-name="Path 8207" d="M327.266,195.074q.769.468,1.536.963" transform="translate(-30.426 -18.136)" fill="none" stroke="#1a2e35" stroke-miterlimit="10" stroke-width="0.75"/>
            <path id="Path_8208" data-name="Path 8208" d="M329.2,198.383c17.535,12.8,31.335,36.328,16.093,59.314-8.92,13.452-24.042,7.914-29.257,3.091-5.759-5.326-.46-10.779,5.293-7.134,9.972,6.32,11.374,20.942.325,31.753-7.322,7.162-16.877,7.5-21.975,7.051" transform="translate(-27.861 -18.443)" fill="none" stroke="#1a2e35" stroke-miterlimit="10" stroke-width="0.75" stroke-dasharray="3.963 3.963"/>
            <path id="Path_8209" data-name="Path 8209" d="M297.527,301.84c-1.128-.163-1.781-.326-1.781-.326" transform="translate(-27.495 -28.031)" fill="none" stroke="#1a2e35" stroke-miterlimit="10" stroke-width="0.75"/>
            <path id="Path_8210" data-name="Path 8210" d="M287.087,300.406c-.453,3.874,7.4,5.995,7.988.933s-7.536-4.807-7.988-.933" transform="translate(-26.688 -27.66)" fill="#1a2e35"/>
            <path id="Path_8211" data-name="Path 8211" d="M297.376,307.158c-.731,1.457-3.312,1.654-5.983-.2a17.935,17.935,0,0,1-4.516-5.068,17.887,17.887,0,0,1,6.767.589c3.084,1.034,4.466,3.221,3.732,4.683" transform="translate(-26.671 -28.057)" fill="#aab2c5"/>
            <path id="Path_8212" data-name="Path 8212" d="M286.876,301.9c1.517.68,3,1.421,4.491,2.157,1.479.755,2.961,1.5,4.413,2.315-1.517-.68-3-1.421-4.492-2.158-1.478-.754-2.961-1.5-4.412-2.314" transform="translate(-26.67 -28.067)" fill="#1a2e35"/>
            <path id="Path_8213" data-name="Path 8213" d="M294.388,307.411a13.2,13.2,0,0,1-.935-1.258,13.054,13.054,0,0,1-.787-1.355,13.051,13.051,0,0,1,.934,1.258,13.323,13.323,0,0,1,.788,1.355" transform="translate(-27.209 -28.337)" fill="#1a2e35"/>
            <path id="Path_8214" data-name="Path 8214" d="M290.99,303.913a14.487,14.487,0,0,1,1.613-.321,14.255,14.255,0,0,1,1.637-.147,15.37,15.37,0,0,1-3.25.468" transform="translate(-27.053 -28.211)" fill="#1a2e35"/>
            <path id="Path_8215" data-name="Path 8215" d="M290.014,304.516a3.513,3.513,0,0,1-.7-1.395,3.233,3.233,0,0,1,.427.658,3.34,3.34,0,0,1,.27.737" transform="translate(-26.897 -28.181)" fill="#1a2e35"/>
            <path id="Path_8216" data-name="Path 8216" d="M298.649,296.444c-.376-1.585-2.841-2.373-5.868-1.182a17.94,17.94,0,0,0-5.565,3.891,17.871,17.871,0,0,0,6.721.988c3.239-.295,5.088-2.105,4.711-3.7" transform="translate(-26.702 -27.397)" fill="#aab2c5"/>
            <path id="Path_8217" data-name="Path 8217" d="M287.217,299.376c1.633-.312,3.249-.69,4.867-1.063,1.614-.393,3.228-.78,4.827-1.234-1.633.312-3.249.69-4.867,1.063-1.614.393-3.228.781-4.827,1.234" transform="translate(-26.702 -27.619)" fill="#1a2e35"/>
            <path id="Path_8218" data-name="Path 8218" d="M295.8,295.756a13.977,13.977,0,0,0-2.279,2.145,12.818,12.818,0,0,0,1.2-1.009,13.2,13.2,0,0,0,1.079-1.137" transform="translate(-27.288 -27.496)" fill="#1a2e35"/>
            <path id="Path_8219" data-name="Path 8219" d="M291.7,298.549a14.682,14.682,0,0,0,1.495.685,14.41,14.41,0,0,0,1.559.521,15.322,15.322,0,0,0-3.054-1.205" transform="translate(-27.119 -27.756)" fill="#1a2e35"/>
            <path id="Path_8220" data-name="Path 8220" d="M290.874,297.662a3.388,3.388,0,0,0-.568.542,3.345,3.345,0,0,0-.433.655,3.25,3.25,0,0,0,.568-.542,3.316,3.316,0,0,0,.433-.655" transform="translate(-26.949 -27.673)" fill="#1a2e35"/>
            <path id="Path_8221" data-name="Path 8221" d="M286.928,300.7a1.407,1.407,0,1,1-1.561,1.234,1.407,1.407,0,0,1,1.561-1.234" transform="translate(-26.529 -27.955)" fill="#858d9e"/>
            <path id="Path_8222" data-name="Path 8222" d="M287.288,297.619a1.407,1.407,0,1,1-1.561,1.234,1.407,1.407,0,0,1,1.561-1.234" transform="translate(-26.563 -27.668)" fill="#858d9e"/>
            <path id="Path_8223" data-name="Path 8223" d="M188.961,400.433S168.509,441.449,168.5,441.48c-1.692,8.473-3.024,15.93-3.353,19.852a.125.125,0,0,0,0,.064,6.024,6.024,0,0,0,.1,2.742.246.246,0,0,0,.039.064c2.18,2.211,69.49,17.709,72.019,17.459s2.016-7.478-.116-10.163c-2.153-2.691-25.26-20.147-25.26-20.147l20.028-41.079Z" transform="translate(-15.346 -37.228)" fill="#ffc0aa"/>
            <path id="Path_8224" data-name="Path 8224" d="M236.286,484.862c-2.526.245-68.822-15.253-71-17.459a.237.237,0,0,1-.043-.063,6.08,6.08,0,0,1-.106-2.74.122.122,0,0,1,.01-.064c.331-3.923,1.663-11.384,3.347-19.858,0-.011,2.628-5.261,4.9-9.822L215.855,446.5l-3.922,8.047s22.093,17.459,24.235,20.145,2.655,9.924.118,10.169" transform="translate(-15.346 -40.428)" fill="#aab2c5"/>
            <path id="Path_8225" data-name="Path 8225" d="M237.179,484.445c-2.56.194-70.028-17.007-72.178-19.294-.833-.855,1.1-10.833,3.782-22.82.03-.125.059-.25.088-.375l43.652,10.61-.2.735s22.88,18.134,24.981,20.9c2.082,2.751,2.436,10.061-.121,10.244" transform="translate(-15.322 -41.088)" fill="#858d9e"/>
            <path id="Path_8226" data-name="Path 8226" d="M237.451,483.936c-11.3-3.178-57.187-14.932-68.6-17.215-.093-.019-.109.044-.018.071,11.134,3.4,57.112,14.778,68.572,17.332.24.054.285-.119.046-.187" transform="translate(-15.69 -43.39)" fill="#fff"/>
            <path id="Path_8227" data-name="Path 8227" d="M219.725,455.451c-4.262-1.976-9.911-2.685-14.144-.368-.164.09-.034.321.122.313a65,65,0,0,1,13.86.616.3.3,0,0,0,.161-.561" transform="translate(-19.106 -42.174)" fill="#fff"/>
            <path id="Path_8228" data-name="Path 8228" d="M222.739,458.5c-4.262-1.976-9.911-2.685-14.144-.368-.164.09-.034.322.122.313a64.994,64.994,0,0,1,13.86.616.3.3,0,0,0,.161-.561" transform="translate(-19.386 -42.458)" fill="#fff"/>
            <path id="Path_8229" data-name="Path 8229" d="M225.754,461.56c-4.262-1.976-9.912-2.685-14.144-.368-.164.09-.034.322.122.313a64.984,64.984,0,0,1,13.859.616.3.3,0,0,0,.162-.561" transform="translate(-19.666 -42.742)" fill="#fff"/>
            <path id="Path_8230" data-name="Path 8230" d="M238.5,484.42c1.089.774-.206,4.762-1.16,4.865s-74.436-18.977-75.615-19.576.424-4.967,1.935-4.827S238.5,484.42,238.5,484.42" transform="translate(-14.998 -43.219)" fill="#aab2c5"/>
            <path id="Path_8231" data-name="Path 8231" d="M178.7,453.307c-4.268-3.693-10.014,2.933-5.739,6.632s10.014-2.933,5.739-6.632" transform="translate(-15.94 -42.043)" fill="#fff"/>
            <path id="Path_8232" data-name="Path 8232" d="M174.412,409.743l49.224,12.414s45.885-82.8,44.858-103.851C267.076,289.24,232.99,200,232.99,200H192.182s27.088,96.505,27.437,112.739c.182,8.494-45.206,97-45.206,97" transform="translate(-16.215 -18.594)" fill="#858d9e"/>
            <path id="Path_8233" data-name="Path 8233" d="M226.529,432.738c-2.623-1.049-26.056-7.814-43.535-11.508a.092.092,0,0,0-.042.179c5.507,1.945,40.24,11.076,43.5,11.525.108.015.192-.148.073-.2" transform="translate(-17.003 -39.161)" fill="#1a2e35"/>
            <path id="Path_8234" data-name="Path 8234" d="M224.463,292.6c-3.245-13.623-6.67-27.206-10.373-40.712-3.719-13.566-7.563-27.113-11.852-40.511-.523-1.636-1.065-3.267-1.6-4.9a.206.206,0,0,0-.395.12c3.819,13.338,7.705,26.658,11.333,40.049s7.107,26.822,10.376,40.3q1.216,5.007,2.393,10.024a91.133,91.133,0,0,1,2.085,10.444,27.12,27.12,0,0,1-.675,10.055,57.582,57.582,0,0,1-3.625,9.352Q213.3,346,204.479,365.171c-5.873,12.819-6.83,15.735-12.458,28.664-.7,1.6-1.4,3.2-2.07,4.82-.044.106.105.2.16.089,6.437-12.663,7.43-15.715,13.406-28.6q9.019-19.448,17.978-38.922c2.692-5.857,5.853-11.833,6.256-18.387.42-6.814-1.727-13.674-3.288-20.231" transform="translate(-17.659 -19.183)" fill="#1a2e35"/>
            <path id="Path_8235" data-name="Path 8235" d="M230.458,418.308s1.58,45.148,1.58,45.179c.257,8.636.636,16.2,1.2,20.1a.117.117,0,0,0,.01.063,6.03,6.03,0,0,0,.717,2.649c.021.021.031.043.052.054,2.622,1.664,71.693,1.624,74.1.812s.283-7.74-2.4-9.877c-2.7-2.138-29.144-13.949-29.144-13.949l-2.007-45.114Z" transform="translate(-21.425 -38.882)" fill="#ffc0aa"/>
            <path id="Path_8236" data-name="Path 8236" d="M231.843,457.879s.324,9.237.324,9.269c.257,8.636.636,16.2,1.2,20.1a.117.117,0,0,0,.01.063,11.7,11.7,0,0,0,.717,2.649c.021.021.031.043.052.053,2.622,1.665,71.693,1.625,74.1.813s.283-7.74-2.4-9.878C303.141,478.808,276.7,467,276.7,467l-.2-9.411Z" transform="translate(-21.554 -42.541)" fill="#aab2c5"/>
            <path id="Path_8237" data-name="Path 8237" d="M308.291,491.523c-2.444.782-72.063-.3-74.685-2.025-1.009-.639-1.442-10.792-1.615-23.075,0-.129,0-.257,0-.385l44.923.2-.029.762s26.463,12.332,29.148,14.534c2.664,2.193,4.7,9.222,2.259,9.993" transform="translate(-21.568 -43.327)" fill="#858d9e"/>
            <path id="Path_8238" data-name="Path 8238" d="M308.033,491.047c-11.731-.47-59.091-1.26-70.723-.834-.094,0-.1.068,0,.074,11.617.72,58.982,1.126,70.722.951.247,0,.249-.182,0-.192" transform="translate(-22.056 -45.563)" fill="#fff"/>
            <path id="Path_8239" data-name="Path 8239" d="M284.219,467.267c-4.6-.933-10.264-.312-13.843,2.923-.139.125.041.32.191.276a64.954,64.954,0,0,1,13.625-2.616.3.3,0,0,0,.027-.583" transform="translate(-25.132 -43.404)" fill="#fff"/>
            <path id="Path_8240" data-name="Path 8240" d="M287.86,469.538c-4.605-.934-10.264-.312-13.844,2.923-.139.125.043.32.192.276a64.9,64.9,0,0,1,13.625-2.616.3.3,0,0,0,.027-.583" transform="translate(-25.47 -43.616)" fill="#fff"/>
            <path id="Path_8241" data-name="Path 8241" d="M291.5,471.81c-4.605-.934-10.264-.313-13.844,2.923-.139.125.042.32.192.276a64.886,64.886,0,0,1,13.625-2.616.3.3,0,0,0,.027-.583" transform="translate(-25.809 -43.827)" fill="#fff"/>
            <path id="Path_8242" data-name="Path 8242" d="M309.248,491.231c1.239.5.9,4.68,0,5s-76.806-1.191-78.093-1.5-.739-4.931.762-5.146,77.331,1.644,77.331,1.644" transform="translate(-21.423 -45.515)" fill="#aab2c5"/>
            <path id="Path_8243" data-name="Path 8243" d="M243.879,474.777c-5.008-2.6-9.06,5.176-4.044,7.783s9.06-5.177,4.044-7.783" transform="translate(-22.084 -44.091)" fill="#fff"/>
            <path id="Path_8244" data-name="Path 8244" d="M232.41,199.957a.154.154,0,0,1-.011.042c-.178.839-10.354,41.059-11.623,41.815-1.438.85,36.967,52.528,41.525,77.9,2.916,16.226,9.556,110.807,9.556,110.807H222.939s-4.795-80.317-6.4-106.79c-.623-10.266-39.152-57.748-42.808-89.4-1.153-9.976,6.013-34.372,6.013-34.372Z" transform="translate(-16.14 -18.59)" fill="#858d9e"/>
            <path id="Path_8245" data-name="Path 8245" d="M226.14,405.518c-.581-13.309-1.111-26.64-2.082-39.928-.549-7.527-1.623-14.818-2.372-22.329-.039-.394-.356-.487-.346-.082.347,13.366,1.449,26.581,2.166,39.932.715,13.311,1.391,16.468,2.146,29.776.427,7.532.8,15.068,1.385,22.588a.091.091,0,0,0,.182,0c.03-13.364-.5-16.6-1.079-29.953" transform="translate(-20.578 -31.881)" fill="#1a2e35"/>
            <path id="Path_8246" data-name="Path 8246" d="M267.173,324.567a70.768,70.768,0,0,0-2.044-10.4,52.5,52.5,0,0,0-3.968-9.558c-3.332-6.4-7.127-12.589-10.786-18.807q-5.558-9.45-11.334-18.767-3.257-5.231-6.548-10.442c-2.22-3.514-4.575-6.946-6.878-10.406a.128.128,0,0,0-.218.135c3.745,6.278,7.452,12.576,11.2,18.854s7.438,12.586,11.132,18.893c3.634,6.2,7.274,12.412,10.745,18.708a64.959,64.959,0,0,1,4.41,9.339,56.9,56.9,0,0,1,2.473,10.29c1.3,8.134,2.371,16.318,4.01,24.395.021.1.186.073.179-.029-.512-7.412-1.39-14.836-2.37-22.2" transform="translate(-20.953 -22.882)" fill="#1a2e35"/>
            <path id="Path_8247" data-name="Path 8247" d="M272.894,444.743c-2.8-.365-24.134-1.1-41.983-.339a.092.092,0,0,0,0,.183c5.818.517,38.684.738,41.956.363.108-.012.15-.19.023-.207" transform="translate(-21.46 -41.285)" fill="#1a2e35"/>
            <path id="Path_8248" data-name="Path 8248" d="M231.178,242.981a91.7,91.7,0,0,0-14.446,6.728.163.163,0,0,0,.135.3c4.866-2.09,9.829-4.089,14.573-6.444a.319.319,0,0,0-.262-.581" transform="translate(-20.141 -22.588)" fill="#1a2e35"/>
            <path id="Path_8249" data-name="Path 8249" d="M233.267,206.22c-.014-.168-.308-.2-.307-.024a162.091,162.091,0,0,1-.816,16.259c-.226,2.506-2.242,16.359-6.589,15.349-.727-.169-1.1-.885-1.214-1.982a17.455,17.455,0,0,1,.577-4.249c.483-2.9.871-5.81,1.119-8.738a79.482,79.482,0,0,0-.177-16.387.14.14,0,0,0-.28.015,150.294,150.294,0,0,1-1.323,22.622c-.544,3.6-2.358,9.028,1.41,9.582,3.839.565,6.321-8.522,6.79-11.007a83,83,0,0,0,.811-21.441" transform="translate(-20.764 -19.159)" fill="#1a2e35"/>
            <path id="Path_8250" data-name="Path 8250" d="M225.765,241.437a23.477,23.477,0,0,0-.978,2.872,6.513,6.513,0,0,0-.406,2.36c.017.152.219.168.3.064a8.294,8.294,0,0,0,1.01-2.3c.33-.888.68-1.77.985-2.667a.486.486,0,0,0-.912-.332" transform="translate(-20.859 -22.418)" fill="#1a2e35"/>
            <path id="Path_8251" data-name="Path 8251" d="M223.4,337.972c-.453-6.834-.428-14.053-3.334-20.4a68.572,68.572,0,0,0-5.325-8.874q-2.984-4.548-5.878-9.153c-7.724-12.27-15.1-24.784-21.859-37.616-3.254-6.179-6.252-12.556-7.888-19.376a61.768,61.768,0,0,1-.889-21.866c.222-1.814.471-3.622.776-5.424.022-.132-.176-.184-.205-.051a71.848,71.848,0,0,0-1.606,21.163,59.026,59.026,0,0,0,5.64,19.491c2.98,6.45,6.523,12.656,10.018,18.837q5.4,9.559,11.135,18.928c3.805,6.211,7.8,12.291,11.773,18.4a35.263,35.263,0,0,1,4.68,9.411,50.556,50.556,0,0,1,1.492,10.679c.98,15.124,4.818,65.394,6.168,80.44q.257,2.865.519,5.73a.133.133,0,0,0,.266-.006c-.583-15.089-4.485-65.238-5.483-80.314" transform="translate(-16.453 -20.001)" fill="#1a2e35"/>
            <path id="Path_8252" data-name="Path 8252" d="M200.642,214.529c-.018-.106-.176-.069-.179.029-.141,4.2-.023,8.537-1.639,12.5-1.483,3.64-4.459,6.192-7.791,8.108a63.253,63.253,0,0,1-5.983,2.931c-.146.064-.088.3.074.246,3.877-1.229,7.81-2.565,11.026-5.143,3.442-2.761,4.948-6.766,5.117-11.1a36.607,36.607,0,0,0-.625-7.577" transform="translate(-17.196 -19.939)" fill="#1a2e35"/>
            <path id="Path_8253" data-name="Path 8253" d="M225.687,138.12c5.487,16.872,20.336,45.608,25.639,49.071,4.7,3.067,26.8-.358,36.473-2.69,3.618-.873-4.514-28.41-8.363-27.4-4.619,1.213-18.389,4.31-19.391,3.551-1.1-.834-14.877-17.874-24.719-27.937-8.922-9.122-11.713-.976-9.638,5.4" transform="translate(-20.921 -11.959)" fill="#ffc0aa"/>
            <path id="Path_8254" data-name="Path 8254" d="M291.156,186.739c1.855-.235,17.544-.945,24.742-4.873,3.811-2.08,13.644-8.981,12.669-11.458-.891-2.261-4.05-1.032-4.05-1.032s4.338-3.141,3.064-6.269-6.5-.781-6.5-.781,4.22-3.55,2.727-6.58-6.352.211-6.352.211,4.011-3.067,1.729-5.044c-2.745-2.38-9.5,4.108-14.059,5.63-1.036.346-21.488,5.513-21.488,5.513Z" transform="translate(-26.37 -13.982)" fill="#ffc0aa"/>
            <path id="Path_8255" data-name="Path 8255" d="M319.225,156.417c-4.98,4.759-7.981,5.98-14.626,7.326-.131.025-.121.225.017.21,6.629-.725,10.614-1.713,14.852-7.307.207-.273-.006-.455-.243-.229" transform="translate(-28.31 -14.532)" fill="#1a2e35"/>
            <path id="Path_8256" data-name="Path 8256" d="M323.126,163.415c-5.6,4.492-8.847,5.845-15.7,7.766-.1.027-.062.194.039.175,6.883-1.322,10.838-2.4,15.847-7.623.227-.237.073-.524-.182-.318" transform="translate(-28.575 -15.186)" fill="#1a2e35"/>
            <path id="Path_8257" data-name="Path 8257" d="M326.673,171.4c-5.739,3.957-9.232,5.594-16.127,6.605a.128.128,0,0,0,.022.255c7.132-.346,11.506-2.356,16.207-6.672.321-.295.259-.436-.1-.188" transform="translate(-28.861 -15.923)" fill="#1a2e35"/>
            <path id="Path_8258" data-name="Path 8258" d="M277.735,162.872s5.713-6.468,8.851-8.756,17.966-6.511,19.059-3.36c1.412,4.068-6.668,8.192-10.889,9.7,0,0,3.275,9.408-1.883,13.622s-15.138-11.2-15.138-11.2" transform="translate(-25.821 -13.911)" fill="#ffc0aa"/>
            <path id="Path_8259" data-name="Path 8259" d="M307.244,152.243c-1.389,4.639-7.057,6.254-11.043,8.018a.4.4,0,0,0-.153.637c1.109,4.034,1.5,10.049-1.325,13.444a.1.1,0,0,0,.143.142c3.525-3.229,3.624-9.17,2.125-13.511,4.116-1.745,9.73-3.615,10.3-8.718a.023.023,0,0,0-.045-.011" transform="translate(-27.397 -14.152)" fill="#1a2e35"/>
            <path id="Path_8260" data-name="Path 8260" d="M285.62,189.4,278.37,156.4l-17.924,3.254c-7.067-8.1-21.2-24.285-26.93-29.15-6.72-5.707-11.121-1.414-8.656,7.223,5.639,19.755,22.017,48.726,26.336,51.506,6.187,3.983,34.424.161,34.424.161" transform="translate(-20.841 -11.892)" fill="#aab2c5"/>
            <g id="Group_8836" data-name="Group 8836" transform="translate(205.412 125.159)" opacity="0.1">
              <g id="Group_8835" data-name="Group 8835">
                <g id="Group_8834" data-name="Group 8834" clip-path="url(#clip-path-7)">
                  <path id="Path_8261" data-name="Path 8261" d="M260.238,170.627a14.1,14.1,0,0,0,2.7.317c1.9.26,2.766,3.092,1.022,4.165a6.913,6.913,0,0,1-6.2.531c-1.93-.751-3.543-2.613-3.131-4.782a2.407,2.407,0,0,1,3.838-1.483,9.266,9.266,0,0,0,1.766,1.252m-4.956-7.851c-.69,3.272,4.357,6.071,6.944,4.331a1.734,1.734,0,0,0,.064-2.72c-.753-.613-1.391-.708-2.063-1.265a2.9,2.9,0,0,1-.612-.645,4.741,4.741,0,0,0-1.434-1.281,2.1,2.1,0,0,0-2.9,1.58m-8.063.174c-1.04,1.351-.255,3.391.657,4.62a4.159,4.159,0,0,0,3.777,1.835,1.4,1.4,0,0,0,.712-2.456,4.356,4.356,0,0,1-1.344-1.679c-.452-1.014-.757-2.329-1.893-2.776a1.65,1.65,0,0,0-1.908.455M268.5,184.313c-1.352,2.743,2.769,5.853,5.27,5.312.834-.18,1.643-1.278.9-2.064-.6-.629-1.308-1.136-1.864-1.8-.678-.817-1.051-1.868-2.121-2.277a1.693,1.693,0,0,0-2.183.833m-38.7-33.575a3.661,3.661,0,0,0-.941-1.162c.539,1.373,1.1,2.757,1.7,4.141a5.668,5.668,0,0,0-.759-2.979m5.347-2.894A11.363,11.363,0,0,0,232.5,141.4c-1.152-1.482-3.146-3.867-5.262-3.334a1.1,1.1,0,0,0-.766,1.059c-.135,1.623,1.729,3.368,2.53,4.66,1.012,1.636,1.725,3.443,2.76,5.06a1.839,1.839,0,0,0,3.386-1m-.624,10.334a1.767,1.767,0,0,0,1.619-1.325,4.315,4.315,0,0,0-.144-2.239,3.733,3.733,0,0,0-1.005-1.832,1.363,1.363,0,0,0-2.245.663,6.692,6.692,0,0,0-.02,1.693c.005.244-.007.486-.02.729a4.825,4.825,0,0,0,.117,1.081,1.716,1.716,0,0,0,1.7,1.23" transform="translate(-226.466 -137.987)"/>
                </g>
              </g>
            </g>
            <path id="Path_8262" data-name="Path 8262" d="M284.391,189.882c-.824-1.949-2.854-10.455-3.336-12.58-.472-2.081-2.126-10.71-2.615-12.894-.026-.119.135-.191.164-.072.52,2.153,2.84,10.622,3.342,12.74s2.424,10.631,2.554,12.775a.057.057,0,0,1-.11.031" transform="translate(-25.886 -15.272)" fill="#1a2e35"/>
            <g id="Group_8839" data-name="Group 8839" transform="translate(203.328 116.327)" opacity="0.1">
              <g id="Group_8838" data-name="Group 8838">
                <g id="Group_8837" data-name="Group 8837" clip-path="url(#clip-path-8)">
                  <path id="Path_8263" data-name="Path 8263" d="M262.711,191.071c-5.041-.028-9.467-.485-11.511-1.8-4.322-2.782-20.7-31.751-26.337-51.506-1.419-4.957-.57-8.486,1.681-9.513Z" transform="translate(-224.169 -128.25)"/>
                </g>
              </g>
            </g>
            <path id="Path_8264" data-name="Path 8264" d="M177.017,197.606c.121.179,60.07,7.869,60.711,7.313a42.456,42.456,0,0,0,.726-5.06s-5.5-65.269-8.34-69.1c-2.489-3.349-10.035-5.763-15.177-3.585-10.79,4.573-36.623,62.889-36.345,65.294a45.2,45.2,0,0,0-1.575,5.134" transform="translate(-16.456 -11.746)" fill="#aab2c5"/>
            <g id="Group_8842" data-name="Group 8842" transform="translate(167.205 124.724)" opacity="0.1">
              <g id="Group_8841" data-name="Group 8841">
                <g id="Group_8840" data-name="Group 8840" clip-path="url(#clip-path-9)">
                  <path id="Path_8265" data-name="Path 8265" d="M199.311,190.7a15.909,15.909,0,0,0,2.863,1.078c2,.8,2.184,4.127-.012,4.828a7.789,7.789,0,0,1-6.912-1.1c-1.9-1.344-3.162-3.816-2.124-6.073a2.709,2.709,0,0,1,4.594-.58c.567.6.894,1.39,1.591,1.847m-3.286-9.92c-1.642,3.387,3.115,7.812,6.412,6.613a1.952,1.952,0,0,0,.808-2.954c-.657-.874-1.327-1.15-1.911-1.942a3.265,3.265,0,0,1-.493-.87,5.354,5.354,0,0,0-1.22-1.788c-1.176-1.1-2.99-.311-3.6.941m-5.547-3.613c-1.8.671-2.262,3.088-2.122,4.8a4.679,4.679,0,0,0,2.516,4,1.579,1.579,0,0,0,2.142-1.923,4.894,4.894,0,0,1-.286-2.4c.171-1.237.662-2.676-.156-3.778a1.857,1.857,0,0,0-2.094-.7M210.172,188.6a1.785,1.785,0,0,0-1.965,1.522,2.1,2.1,0,0,0,1.492,2.22,3.2,3.2,0,0,0,2.015.011,1.483,1.483,0,0,0,.777-.695,1.563,1.563,0,0,0,.223-1.039,27.157,27.157,0,0,0-1.527-1.6,2.022,2.022,0,0,0-1.015-.422m-14.734-23.184c-1.606,1.654-.92,5.41.884,6.673a1.719,1.719,0,0,0,2.735-1.124,6.758,6.758,0,0,0,.021-1.139c-.008-.412-.049-.678-.035-.919a9.042,9.042,0,0,0,.084-2.489,2.107,2.107,0,0,0-3.689-1m-10.412,23.864c-2.22,2.629,1.439,7.144,4.317,7.232.961.029,2.141-.951,1.54-2.012-.481-.849-1.121-1.6-1.546-2.477-.519-1.076-.642-2.326-1.7-3.061a1.905,1.905,0,0,0-2.611.318m53-.835a1.841,1.841,0,0,0-1.517,1.383c-.307,1.066-.346,2.017-1.144,2.854a13.176,13.176,0,0,0-2.354,2.382,1.41,1.41,0,0,0,1.288,2.056,6.641,6.641,0,0,0,4.294-2.344c-.153-1.807-.346-3.949-.567-6.331m-4.829-7.924c-.543,1.307-.444,2.786-.893,4.152a33.859,33.859,0,0,1-1.42,3.67c-.4.858.407,2.229,1.456,1.763a7.239,7.239,0,0,0,3.9-3.565c.732-1.507,1.537-4.04.834-5.652-.645-1.478-3.092-2.26-3.878-.369m-5.478,13.091a8.8,8.8,0,0,1-2.99,2.454,2.055,2.055,0,1,0,1.685,3.713,7.393,7.393,0,0,0,4.168-4.665,1.684,1.684,0,0,0-2.863-1.5m-8.785-47.072a2.132,2.132,0,0,0,2.5-1.555c.541-2.071-1.308-4.2-2.769-5.484-1.506-1.329-3.519-2.458-5.558-1.792a1.682,1.682,0,0,0-.681,2.781c.892,1.114,2.13,1.932,3.08,3.012,1.027,1.167,1.753,2.762,3.427,3.038m7.344,8.143c.805-1.164.183-2.869-.4-3.984a3.524,3.524,0,0,0-1.369-1.459,1.781,1.781,0,0,0-2.464.528,2.345,2.345,0,0,0-.114,1.748,5.459,5.459,0,0,0,.323.869c.018.041.031.068.041.088s.014.046.024.078a5.838,5.838,0,0,0,1.128,2.567,1.825,1.825,0,0,0,2.829-.435m4.951-6.88a11.363,11.363,0,0,0-2.648-6.446c-1.152-1.482-3.146-3.867-5.262-3.334a1.1,1.1,0,0,0-.766,1.059c-.135,1.623,1.729,3.368,2.53,4.66,1.012,1.636,1.725,3.443,2.76,5.06a1.839,1.839,0,0,0,3.386-1m-7.254,16.446a2.512,2.512,0,0,0,1.075-.032,2.2,2.2,0,0,0,1.254-1.013,3.453,3.453,0,0,0,.373-1.664,3.251,3.251,0,0,0-.434-1.548l-.314-.395-.421-.308a1.925,1.925,0,0,0-1.234-.2,1.952,1.952,0,0,0-1.588,1.462,9.544,9.544,0,0,0-.336,1.708c.028.177.057.355.085.532a1.587,1.587,0,0,0,.387.707,2.022,2.022,0,0,0,1.153.748m6.629-6.112a1.767,1.767,0,0,0,1.619-1.325,4.315,4.315,0,0,0-.144-2.239,3.733,3.733,0,0,0-1-1.832,1.363,1.363,0,0,0-2.245.663,6.692,6.692,0,0,0-.02,1.693c.005.244-.007.486-.02.729a4.825,4.825,0,0,0,.117,1.081,1.716,1.716,0,0,0,1.7,1.23" transform="translate(-184.343 -137.508)"/>
                </g>
              </g>
            </g>
            <path id="Path_8266" data-name="Path 8266" d="M230.752,139.735c-3.663-.336-8.349-8.154-9.241-13.127-.059-.341,1.4-3.23,3.01-6.824.967-2.185,1.993-4.64,2.766-6.949l13.3,8.372a38.786,38.786,0,0,0-4.37,8.394,5.508,5.508,0,0,0-.219.98c-.01.045-.015.1-.032.164-.31,1.9-1.672,9.312-5.212,8.99" transform="translate(-20.593 -10.49)" fill="#ffc0aa"/>
            <path id="Path_8267" data-name="Path 8267" d="M236.627,130.64c-.011.043-.015.1-.03.159a9.571,9.571,0,0,1-1.515-.412c-8.315-3-6.849-13.912-6.264-16.925l3.322,2.09,9.078,5.716a38.526,38.526,0,0,0-4.366,8.4,5.177,5.177,0,0,0-.225.977" transform="translate(-21.228 -10.548)" fill="#1a2e35"/>
            <path id="Path_8268" data-name="Path 8268" d="M229.169,95.219c-2.747,4.949-3.223,20.841-.186,25.056,4.4,6.112,13.238,8.5,18.842,2.832,5.431-5.49,5.683-26.212,2.141-30.21-5.22-5.889-16.737-4.987-20.8,2.323" transform="translate(-21.095 -8.277)" fill="#ffc0aa"/>
            <path id="Path_8269" data-name="Path 8269" d="M243.338,110.018c-.007-.042-.087.049-.087.093,0,1.094-.19,2.346-1.192,2.676-.031.01-.03.064.007.061,1.212-.128,1.444-1.793,1.272-2.83" transform="translate(-22.502 -10.227)" fill="#1a2e35"/>
            <path id="Path_8270" data-name="Path 8270" d="M242.287,108.723c-1.752-.193-2.012,3.327-.387,3.506,1.6.177,1.857-3.343.387-3.506" transform="translate(-22.388 -10.107)" fill="#1a2e35"/>
            <path id="Path_8271" data-name="Path 8271" d="M250.4,110.429c.012-.041.082.059.076.1-.122,1.087-.078,2.353.879,2.793.03.014.023.068-.014.061-1.19-.266-1.231-1.946-.941-2.957" transform="translate(-23.266 -10.266)" fill="#1a2e35"/>
            <path id="Path_8272" data-name="Path 8272" d="M251.472,109.261c1.763.007,1.62,3.534-.015,3.527-1.608-.006-1.464-3.533.015-3.527" transform="translate(-23.271 -10.158)" fill="#1a2e35"/>
            <path id="Path_8273" data-name="Path 8273" d="M243.671,107.755a14,14,0,0,1-1.439.171,2.347,2.347,0,0,1-1.5-.105.747.747,0,0,1-.29-.864,1.85,1.85,0,0,1,1.589-.994,2.718,2.718,0,0,1,1.926.364.8.8,0,0,1-.284,1.429" transform="translate(-22.349 -9.847)" fill="#1a2e35"/>
            <path id="Path_8274" data-name="Path 8274" d="M253.04,105.4a13.636,13.636,0,0,1-1.372-.465,2.344,2.344,0,0,1-1.309-.742.747.747,0,0,1,.11-.905,1.85,1.85,0,0,1,1.863-.212,2.72,2.72,0,0,1,1.58,1.158.8.8,0,0,1-.872,1.166" transform="translate(-23.266 -9.569)" fill="#1a2e35"/>
            <path id="Path_8275" data-name="Path 8275" d="M242.545,118.195a9.252,9.252,0,0,1,4.3.055c.127-.01.258-.25.287-.367v-.008c0-.04.084-2.309.084-2.309.293.172,1.792.971,1.8.535a55.409,55.409,0,0,0-.684-11.2.1.1,0,0,0-.2.015c-.161,3.462.288,6.929.181,10.408a6.418,6.418,0,0,0-1.7-.64c-.121.025.036,2.448-.028,2.818a5.357,5.357,0,0,0-4.029.218c-.486.266-.691.694-.015.476" transform="translate(-22.509 -9.745)" fill="#1a2e35"/>
            <path id="Path_8276" data-name="Path 8276" d="M239.44,122.09c.243.269.481.634.871.691a2.865,2.865,0,0,0,1.178-.2.038.038,0,0,1,.044.058,1.458,1.458,0,0,1-1.408.5,1.153,1.153,0,0,1-.792-1.008c-.013-.063.072-.083.107-.044" transform="translate(-22.25 -11.349)" fill="#1a2e35"/>
            <g id="Group_8845" data-name="Group 8845" transform="translate(205.805 81.899)" opacity="0.2">
              <g id="Group_8844" data-name="Group 8844">
                <g id="Group_8843" data-name="Group 8843" clip-path="url(#clip-path-10)">
                  <path id="Path_8277" data-name="Path 8277" d="M233.808,90.293c-.14,2.475-.727,10.123-1.917,11.685-1.133,1.5-3.708,5.176-4.991,5.741.178-5.1.962-9.953,2.283-12.461a13.009,13.009,0,0,1,4.625-4.965" transform="translate(-226.9 -90.293)" fill="#1a2e35"/>
                </g>
              </g>
            </g>
            <path id="Path_8278" data-name="Path 8278" d="M248.635,98.323a5.627,5.627,0,0,1-5.254,1.537,5.735,5.735,0,0,1-4.16-3.724.045.045,0,0,0-.086.025,5.674,5.674,0,0,0,4.136,4.142,5.787,5.787,0,0,0,5.463-1.883c.057-.068-.036-.161-.1-.1" transform="translate(-22.232 -8.935)" fill="#1a2e35"/>
            <path id="Path_8279" data-name="Path 8279" d="M243.41,82.843A8.851,8.851,0,0,0,235.7,86.4a6.313,6.313,0,0,0-.9,4.054c.006.057.122.054.122,0a6.921,6.921,0,0,1,3.7-6.008,8.919,8.919,0,0,1,7.936-.387,5.651,5.651,0,0,1,2.852,2.641c.054.122.3.063.259-.061-.737-2.09-3.313-3.646-6.257-3.79" transform="translate(-21.826 -7.701)" fill="#1a2e35"/>
            <path id="Path_8280" data-name="Path 8280" d="M263.545,91.53a7.174,7.174,0,0,0-2.779-4.067c-1.9-1.375-4.171-1.352-6.422-1.284a.048.048,0,0,0,0,.1A9.906,9.906,0,0,1,259.9,87.3a7.061,7.061,0,0,1,3.013,3.657,6.879,6.879,0,0,1-3.448,8.321,6.987,6.987,0,0,1-5.537.17c-.07-.028-.13.073-.059.1a7.026,7.026,0,0,0,9.678-8.022" transform="translate(-23.599 -8.01)" fill="#1a2e35"/>
            <path id="Path_8281" data-name="Path 8281" d="M228.225,97.863s-2.646-6.038.184-9.206c1.6-1.8,6.431-1.179,6.431-1.179a8.764,8.764,0,0,1,5.856-3.284c4.126-.621,8.769,2.112,8.769,2.112s4.018-1.914,7.471.421c4.813,3.255,3.6,10.87-1.645,12.951-3.686,1.461-8.277-2.051-8.277-2.051-.469.028-5.44,2.534-8.713-1.979,0,0-3.117,2.376-5.6.356a4.245,4.245,0,0,1-4.474,1.86" transform="translate(-21.113 -7.819)" fill="#1a2e35"/>
            <path id="Path_8282" data-name="Path 8282" d="M229.414,109.863s-2.514-5.636-5.007-4.833-1.271,8.506,1.185,10a2.739,2.739,0,0,0,3.884-.75Z" transform="translate(-20.736 -9.757)" fill="#ffc0aa"/>
            <path id="Path_8283" data-name="Path 8283" d="M224.989,107.463a.037.037,0,0,0-.027.068c1.71,1.109,2.355,3.018,2.695,4.933a1.514,1.514,0,0,0-2.145-.835c-.054.025-.023.111.032.11a1.685,1.685,0,0,1,1.71.929,8.132,8.132,0,0,1,.588,1.641c.055.183.372.152.346-.051,0-.015,0-.031-.007-.046.5-2.356-.7-6.021-3.19-6.748" transform="translate(-20.913 -9.991)" fill="#1a2e35"/>
            <rect id="Rectangle_2974" data-name="Rectangle 2974" width="108.176" height="63.672" transform="translate(238.412 142.982) rotate(-17.03)" fill="#aab2c5"/>
            <g id="Group_8848" data-name="Group 8848" transform="translate(238.412 111.301)" opacity="0.2">
              <g id="Group_8847" data-name="Group 8847">
                <g id="Group_8846" data-name="Group 8846" clip-path="url(#clip-path-11)">
                  <rect id="Rectangle_2975" data-name="Rectangle 2975" width="108.176" height="63.672" transform="translate(0 31.681) rotate(-17.03)"/>
                </g>
              </g>
            </g>
            <g id="Group_8851" data-name="Group 8851" transform="translate(307.08 111.3)" opacity="0.2">
              <g id="Group_8850" data-name="Group 8850">
                <g id="Group_8849" data-name="Group 8849" clip-path="url(#clip-path-12)">
                  <rect id="Rectangle_2977" data-name="Rectangle 2977" width="36.354" height="63.674" transform="matrix(0.956, -0.293, 0.293, 0.956, 0, 10.647)"/>
                </g>
              </g>
            </g>
            <path id="Path_8284" data-name="Path 8284" d="M373.715,126.128q-1.75,8.079-3.415,16.179l-3.282,16.215-3.167,16.246q-1.562,8.128-3.033,16.281,1.751-8.078,3.416-16.179l3.282-16.215,3.166-16.246q1.562-8.128,3.033-16.281" transform="translate(-33.545 -11.726)" fill="#aab2c5"/>
            <path id="Path_8285" data-name="Path 8285" d="M389.038,182.81q-5.788-5.927-11.632-11.79l-11.722-11.685-11.8-11.6q-5.914-5.781-11.891-11.49,5.786,5.928,11.632,11.79l11.722,11.685,11.8,11.595q5.914,5.781,11.89,11.491" transform="translate(-31.795 -12.667)" fill="#aab2c5"/>
            <rect id="Rectangle_2979" data-name="Rectangle 2979" width="0.593" height="8.363" transform="translate(255.84 142.819) rotate(-16.991)" fill="#1a2e35"/>
            <rect id="Rectangle_2980" data-name="Rectangle 2980" width="0.593" height="8.364" transform="translate(254.473 143.238) rotate(-17.076)" fill="#1a2e35"/>
            <rect id="Rectangle_2981" data-name="Rectangle 2981" width="0.593" height="8.363" transform="translate(253.119 143.653) rotate(-16.991)" fill="#1a2e35"/>
            <rect id="Rectangle_2982" data-name="Rectangle 2982" width="0.593" height="8.363" transform="translate(251.758 144.069) rotate(-16.991)" fill="#1a2e35"/>
            <rect id="Rectangle_2983" data-name="Rectangle 2983" width="0.593" height="8.363" transform="translate(250.397 144.486) rotate(-16.991)" fill="#1a2e35"/>
            <rect id="Rectangle_2984" data-name="Rectangle 2984" width="0.593" height="8.363" transform="translate(249.037 144.903) rotate(-16.991)" fill="#1a2e35"/>
            <rect id="Rectangle_2985" data-name="Rectangle 2985" width="0.593" height="8.363" transform="translate(247.676 145.32) rotate(-16.991)" fill="#1a2e35"/>
            <rect id="Rectangle_2986" data-name="Rectangle 2986" width="0.593" height="8.363" transform="translate(246.315 145.737) rotate(-16.991)" fill="#1a2e35"/>
            <rect id="Rectangle_2987" data-name="Rectangle 2987" width="0.593" height="8.363" transform="translate(244.954 146.153) rotate(-16.991)" fill="#1a2e35"/>
            <path id="Path_8286" data-name="Path 8286" d="M288.783,155.905l-2.368.062,5.121-1.569-1.994,1.283.9,2.939c1.624-.273,2.717,1.078,3.543,3.771l-5.122,1.569c-.823-2.688-.677-4.425.823-5.108Z" transform="translate(-26.628 -14.354)" fill="#1a2e35"/>
            <path id="Path_8287" data-name="Path 8287" d="M294.7,157.76l1.337-.409-1.2-3.915,3.423-1.049,1.2,3.914,1.343-.411L299,160.9Z" transform="translate(-27.398 -14.167)" fill="#1a2e35"/>
            <g id="Group_8854" data-name="Group 8854" transform="translate(238.411 121.951)" opacity="0.1">
              <g id="Group_8853" data-name="Group 8853">
                <g id="Group_8852" data-name="Group 8852" clip-path="url(#clip-path-13)">
                  <path id="Path_8288" data-name="Path 8288" d="M262.848,155.48l1.529,4.993,71.5-11.789-4.36-14.234Z" transform="translate(-262.848 -134.451)"/>
                </g>
              </g>
            </g>
            <path id="Path_8289" data-name="Path 8289" d="M407.281,196.73l-34.765,10.649-13.4-6.9,34.765-10.649Z" transform="translate(-33.386 -17.648)" fill="#aab2c5"/>
            <g id="Group_8857" data-name="Group 8857" transform="translate(325.728 172.18)" opacity="0.2">
              <g id="Group_8856" data-name="Group 8856">
                <g id="Group_8855" data-name="Group 8855" clip-path="url(#clip-path-14)">
                  <path id="Path_8290" data-name="Path 8290" d="M407.281,196.73l-34.765,10.649-13.4-6.9,34.765-10.649Z" transform="translate(-359.114 -189.828)"/>
                </g>
              </g>
            </g>
            <path id="Path_8291" data-name="Path 8291" d="M275.426,236.89l34.765-10.649,7.237-13.224-34.764,10.649Z" transform="translate(-25.606 -19.804)" fill="#aab2c5"/>
            <g id="Group_8860" data-name="Group 8860" transform="translate(249.82 193.214)" opacity="0.1">
              <g id="Group_8859" data-name="Group 8859">
                <g id="Group_8858" data-name="Group 8858" clip-path="url(#clip-path-15)">
                  <path id="Path_8292" data-name="Path 8292" d="M275.426,236.89l34.765-10.649,7.237-13.224-34.764,10.649Z" transform="translate(-275.426 -213.018)"/>
                </g>
              </g>
            </g>
            <path id="Path_8293" data-name="Path 8293" d="M212.282,146.315c5.081,17,19.237,46.082,24.456,49.671,4.622,3.179,26.806.285,36.527-1.815,3.637-.785-3.832-28.511-7.7-27.593-4.646,1.1-18.487,3.869-19.471,3.086-1.08-.86-14.444-18.225-24.043-28.522-8.7-9.333-11.687-1.256-9.765,5.173" transform="translate(-19.684 -12.728)" fill="#ffc0aa"/>
            <path id="Path_8294" data-name="Path 8294" d="M268.88,170.405s7.347-8.285,12.554-11.443a39.139,39.139,0,0,1,18.005-5.139c6.831-.273,23.534,3.79,23.2,8.805-.3,4.54-17.163-.476-17.163-.476s18.037,2.277,16.672,7.676-20.611-1.537-20.611-1.537,18.481,2.756,16.192,8.1c-1.731,4.04-19.515-1.261-19.515-1.261s15.868,2.478,14.268,6.709c-1.769,4.676-18.492.813-18.492.813-5.878,10.07-12.8,12.461-17.919,13.575-1.241.27-7.2-25.823-7.2-25.823" transform="translate(-24.997 -14.299)" fill="#ffc0aa"/>
            <path id="Path_8295" data-name="Path 8295" d="M302.4,161.7c2.129.19,4.284.369,6.388.749s4.2.832,6.257,1.406a36.466,36.466,0,0,1,7.8,2.994c-4.565-1.973-12.077-3.448-14.182-3.827s-4.181-.863-6.281-1.243c-.053-.01-.034-.084.017-.08" transform="translate(-28.11 -15.033)" fill="#1a2e35"/>
            <path id="Path_8296" data-name="Path 8296" d="M300.742,170.047c2.707.361,5.409.621,8.1,1.1s5.179,1.166,7.818,1.829c.2.051.109.142-.1.1-2.663-.555-5.168-.863-7.838-1.388s-5.321-1.154-8-1.579c-.042-.005-.027-.068.014-.064" transform="translate(-27.956 -15.809)" fill="#1a2e35"/>
            <path id="Path_8297" data-name="Path 8297" d="M298.024,176.957a61.032,61.032,0,0,1,12.258,2.632c.2.059.063.165-.142.116-4.059-.951-7.235-1.727-12.128-2.6-.076-.014-.075-.152.013-.145" transform="translate(-27.701 -16.451)" fill="#1a2e35"/>
            <path id="Path_8298" data-name="Path 8298" d="M270.971,199.013l-6.457-33.157-18,2.824c-6.871-8.265-20.614-24.786-26.223-29.787-6.581-5.867-11.084-1.681-8.826,7.012,5.164,19.885,20.844,49.24,25.094,52.123,6.09,4.13,34.41.985,34.41.985" transform="translate(-19.605 -12.659)" fill="#aab2c5"/>
            <g id="Group_8863" data-name="Group 8863" transform="translate(194.829 124.724)" opacity="0.1">
              <g id="Group_8862" data-name="Group 8862">
                <g id="Group_8861" data-name="Group 8861" clip-path="url(#clip-path-16)">
                  <path id="Path_8299" data-name="Path 8299" d="M259.154,170.582a14.1,14.1,0,0,0,2.7.317c1.9.26,2.766,3.091,1.021,4.165a6.913,6.913,0,0,1-6.2.531c-1.929-.751-3.543-2.613-3.131-4.782a2.407,2.407,0,0,1,3.838-1.483,9.272,9.272,0,0,0,1.767,1.252m-1.893-3.4a4.174,4.174,0,0,0,3.881-.115,1.443,1.443,0,0,0,.5-.577Zm-9.348,1.46a3.817,3.817,0,0,0,2.651.72,1.4,1.4,0,0,0,1.211-1.326Zm20.367,14.8a1.678,1.678,0,0,0-.865.826c-.806,1.624.317,3.371,1.883,4.419Zm-28.937,6.377a5.866,5.866,0,0,1-1.147,2.852,13.778,13.778,0,0,0-2.352,2.381,1.418,1.418,0,0,0,1.293,2.061,6.754,6.754,0,0,0,5.891-6.936,1.875,1.875,0,0,0-3.685-.357m-3.312-9.305c-.542,1.307-.444,2.785-.893,4.152a33.859,33.859,0,0,1-1.42,3.67c-.4.858.407,2.229,1.457,1.763a7.242,7.242,0,0,0,3.9-3.565c.731-1.507,1.536-4.04.834-5.652-.645-1.478-3.092-2.26-3.878-.369M221.77,146.536a2.132,2.132,0,0,0,2.5-1.556c.541-2.07-1.308-4.194-2.769-5.483-1.506-1.329-3.518-2.458-5.558-1.792a1.682,1.682,0,0,0-.68,2.781c.891,1.114,2.129,1.932,3.079,3.012,1.028,1.167,1.754,2.762,3.427,3.038m7.344,8.143c.805-1.164.183-2.869-.4-3.984a3.513,3.513,0,0,0-1.369-1.459,1.78,1.78,0,0,0-2.463.528,2.341,2.341,0,0,0-.115,1.748,5.336,5.336,0,0,0,.324.868c.018.042.03.069.04.089s.014.046.024.078a5.839,5.839,0,0,0,1.129,2.567,1.824,1.824,0,0,0,2.828-.435m-2.3,9.566a2.513,2.513,0,0,0,1.075-.032,2.195,2.195,0,0,0,1.253-1.013,3.456,3.456,0,0,0,.373-1.664,3.267,3.267,0,0,0-.433-1.549l-.315-.394-.421-.308a1.923,1.923,0,0,0-1.234-.2,1.954,1.954,0,0,0-1.589,1.462,9.609,9.609,0,0,0-.336,1.708c.029.177.057.355.085.532a1.587,1.587,0,0,0,.387.707,2.024,2.024,0,0,0,1.154.748m8.112-9.661c-.01-.01-.01-.01-.01-.019l-1.873-2.161a1.261,1.261,0,0,0-1.374,1,6.236,6.236,0,0,0-.019,1.691c0,.24-.009.481-.019.73a4.521,4.521,0,0,0,.115,1.077,1.7,1.7,0,0,0,1.7,1.229,1.759,1.759,0,0,0,1.614-1.325,4.359,4.359,0,0,0-.134-2.219" transform="translate(-214.798 -137.508)"/>
                </g>
              </g>
            </g>
            <path id="Path_8300" data-name="Path 8300" d="M269.743,199.46c-.778-1.968-2.6-10.521-3.033-12.656-.423-2.092-1.87-10.758-2.306-12.953-.024-.12.14-.189.166-.067.467,2.164,2.584,10.686,3.036,12.816s2.169,10.686,2.248,12.832a.057.057,0,0,1-.111.028" transform="translate(-24.581 -16.15)" fill="#1a2e35"/>
            <path id="Path_8301" data-name="Path 8301" d="M259.191,201.924q-4.419.245-8.852.208c-4.4-.177-9.072.091-13.206-1.668-3.667-2.716-5.622-6.962-7.9-10.759A253.178,253.178,0,0,1,214.8,157.365c4.877,10.731,9.655,21.526,15.176,31.936,2.17,3.685,4.081,7.965,7.434,10.675a13.61,13.61,0,0,0,4.147,1.16,117.041,117.041,0,0,0,17.635.788" transform="translate(-19.969 -14.63)" fill="#1a2e35"/>
            <path id="Path_8302" data-name="Path 8302" d="M216.7,162.242a7.544,7.544,0,0,1-1.809-2.8,32.9,32.9,0,0,1,1.809,2.8" transform="translate(-19.978 -14.823)" fill="#1a2e35"/>
            <path id="Path_8303" data-name="Path 8303" d="M233.583,152.708c5.238,5.4,9.718,11.5,14.873,16.963a2.6,2.6,0,0,0,.214.19c.051.045.023.007.025.03s.072,0,.105,0c1.621-.069,5.9-.81,7.595-1.032.027.021,10.288-1.56,10.262-1.47l.131.845-.2-.833.038.026c-5.956,1.187-11.837,2.472-17.891,3.117-.3.032-.549-.213-.736-.387-5.137-5.415-9.632-11.736-14.42-17.449" transform="translate(-21.716 -14.197)" fill="#1a2e35"/>
            <path id="Path_8304" data-name="Path 8304" d="M234.978,153.035a7.577,7.577,0,0,1,1.474,3c-.484-.99-1.089-1.963-1.474-3" transform="translate(-21.846 -14.227)" fill="#1a2e35"/>
            <path id="Path_8305" data-name="Path 8305" d="M107.918,418.489a254.279,254.279,0,0,1,.37-26.969,343.447,343.447,0,0,1,8.448-54.945c2.356-10.168,5.257-20.164,8.28-30.149.092-.3.572-.217.489.1-9.348,35.2-17.018,71.525-16.49,108.115.148,10.24,1.333,20.3,2.306,30.474.026.272-.422.38-.483.1-1.93-8.708-2.558-17.831-2.92-26.725" transform="translate(-10.014 -28.471)" fill="#aab2c5"/>
            <path id="Path_8306" data-name="Path 8306" d="M125.635,306.553S139.8,342.5,136.626,350.947s-9.707,10.25-9.707,10.25,8.665,12.371,2.61,23.973-19.508,11.054-20.4,24.21c0,0-.75-55.006,16.508-102.827" transform="translate(-10.145 -28.5)" fill="#aab2c5"/>
            <path id="Path_8307" data-name="Path 8307" d="M110.758,387.443a.274.274,0,0,1,.015-.189,329.174,329.174,0,0,1,13.736-72.309c.022-.07.136-.047.117.024q-4.21,15.771-7.437,31.714a15.646,15.646,0,0,1,6.76-3.769.038.038,0,0,1,.025.072,17.923,17.923,0,0,0-6.98,4.664q-.62,3.125-1.2,6.255c3.165-3.536,7.554-5.292,11.945-6.96a.051.051,0,0,1,.034.1c-4.574,1.862-9.129,4.261-12.229,8.2q-1.62,8.948-2.844,17.956a17.109,17.109,0,0,1,8.444-4.839c.1-.024.153.122.054.151A17.842,17.842,0,0,0,112.632,374a.236.236,0,0,1-.053.04q-.426,3.169-.8,6.345a21.82,21.82,0,0,1,5.919-3.571c.057-.024.088.066.032.091a20.328,20.328,0,0,0-5.928,3.924c-.024.024-.05.021-.075.03-.236,2.013-.471,4.026-.674,6.044a28.772,28.772,0,0,1,12.011-8.577c.093-.035.141.106.051.145a31.3,31.3,0,0,0-11.837,9.108.263.263,0,0,1-.3.093c-.306,3.093-.58,6.19-.807,9.294,0,.043-.073.047-.071,0q.269-4.763.658-9.526" transform="translate(-10.236 -29.276)" fill="#1a2e35"/>
            <path id="Path_8308" data-name="Path 8308" d="M123.364,341.577a17.715,17.715,0,0,1,8.508-2.653.055.055,0,0,1,.008.109,33.672,33.672,0,0,0-8.413,2.747c-.122.052-.209-.131-.1-.2" transform="translate(-11.465 -31.509)" fill="#1a2e35"/>
            <path id="Path_8309" data-name="Path 8309" d="M121.47,383.581a17.9,17.9,0,0,1,6.386-2.184c.078-.013.084.107.009.121a23.983,23.983,0,0,0-6.318,2.216c-.087.043-.161-.1-.077-.152" transform="translate(-11.29 -35.458)" fill="#1a2e35"/>
            <path id="Path_8310" data-name="Path 8310" d="M66.837,356.136a96.293,96.293,0,0,1,16.391,14.327,58.877,58.877,0,0,1,11.5,19.495,145.754,145.754,0,0,1,8.563,46.625,113.334,113.334,0,0,1-2.524,26.22.25.25,0,0,1-.491-.092,147.063,147.063,0,0,0-.257-45.834c-2.434-14.87-6.254-31.047-15.707-43.132-5.146-6.58-11.564-11.757-17.908-17.107-.333-.281.093-.744.436-.5" transform="translate(-6.162 -33.103)" fill="#aab2c5"/>
            <path id="Path_8311" data-name="Path 8311" d="M101.165,425.8a88.14,88.14,0,0,0-11.947-15.273c-7.085-7.082-13.051-12.116-13.973-16.8s7.1-8.133,7.1-8.133-9.8,1.76-12.486-2.355S65.878,355.3,65.878,355.3s17.836,12.733,26.145,30.583,9.142,39.922,9.142,39.922" transform="translate(-6.125 -33.032)" fill="#aab2c5"/>
            <path id="Path_8312" data-name="Path 8312" d="M72.659,362.025c7.5,7.371,15.057,15.225,19.476,24.908a95.639,95.639,0,0,1,3.94,10.27c0,.005,0,.012.005.016.228.7.458,1.407.673,2.116a.253.253,0,0,1,.036.116,202.148,202.148,0,0,1,5.067,22.016c.009.047-.063.072-.073.023-.769-3.718-1.616-7.472-2.563-11.215a.259.259,0,0,1-.107-.021,15.6,15.6,0,0,0-4.68-1.188c-.106-.01-.1-.2.01-.19a17.537,17.537,0,0,1,4.629.844c-.863-3.375-1.8-6.741-2.859-10.058a49.7,49.7,0,0,0-10.578-1.383c-.036,0-.043-.055,0-.057a40.011,40.011,0,0,1,10.4.883c-.184-.57-.376-1.136-.566-1.7a53.715,53.715,0,0,0-7.039-1.193c-.043,0-.039-.077,0-.075a34.2,34.2,0,0,1,6.893.837c-.971-2.871-2.019-5.7-3.183-8.46a51.269,51.269,0,0,0-3.368-6.538,42.994,42.994,0,0,0-5.709-1.018c-.054,0-.049-.092,0-.094a15.376,15.376,0,0,1,5.338.527c-.938-1.516-1.924-3-2.979-4.437-4-.885-8.054-1.708-12.145-.94-.07.014-.1-.105-.026-.123,3.895-1.025,7.761-.434,11.636.334-.424-.563-.856-1.118-1.293-1.671a26.518,26.518,0,0,0-7.473-1.174.042.042,0,0,1-.007-.083,19.513,19.513,0,0,1,6.968.619c-3.307-4.108-6.959-7.966-10.57-11.782-.168-.178-.037-.28.141-.106" transform="translate(-6.735 -33.649)" fill="#1a2e35"/>
            <path id="Path_8313" data-name="Path 8313" d="M72.895,379.925a16.292,16.292,0,0,1,3.547-.123.128.128,0,0,1-.014.253c-1.174.034-2.347-.054-3.522.01a.07.07,0,0,1-.012-.14" transform="translate(-6.771 -35.304)" fill="#1a2e35"/>
            <path id="Path_8314" data-name="Path 8314" d="M87.042,405.43a16.09,16.09,0,0,1,5.5,1.1c.044.015.019.088-.026.078-1.816-.433-3.652-.608-5.485-.91-.15-.025-.143-.27.014-.272" transform="translate(-8.081 -37.692)" fill="#1a2e35"/>
            <path id="Path_8315" data-name="Path 8315" d="M91.285,396.624a11.735,11.735,0,0,1,2.334.21.071.071,0,0,1-.007.14,11.719,11.719,0,0,1-2.339-.11.122.122,0,0,1,.013-.24" transform="translate(-8.477 -36.873)" fill="#1a2e35"/>
            <path id="Path_8316" data-name="Path 8316" d="M157.083,384.023a81,81,0,0,0-16.576,7.807,49.537,49.537,0,0,0-13.81,13.119A122.644,122.644,0,0,0,108.991,440.7a95.344,95.344,0,0,0-4.018,21.8.21.21,0,0,0,.418.038,123.783,123.783,0,0,1,10.8-37.033c5.408-11.47,12.239-23.68,22.681-31.275,5.686-4.135,12.076-6.842,18.446-9.705.335-.151.1-.623-.237-.507" transform="translate(-9.759 -35.7)" fill="#aab2c5"/>
            <path id="Path_8317" data-name="Path 8317" d="M113.99,432.479a74.217,74.217,0,0,1,13.2-9.6c7.371-4.094,13.362-6.789,15.191-10.367s-3.864-8.222-3.864-8.222,7.527,3.69,10.649.981,9.678-21.7,9.678-21.7-17.377,6.182-28.228,18.707-16.626,30.2-16.626,30.2" transform="translate(-10.598 -35.661)" fill="#aab2c5"/>
            <path id="Path_8318" data-name="Path 8318" d="M114.986,428.991c8.691-16.313,20.288-31.071,36.178-40.812.007,0,.015.006.008.011a79.924,79.924,0,0,0-11.631,9.1,18.427,18.427,0,0,1,9.342,1.973.054.054,0,0,1-.047.1,25.633,25.633,0,0,0-9.613-1.624.182.182,0,0,1-.109-.041q-.846.8-1.672,1.627a29.677,29.677,0,0,1,4.992.662.035.035,0,0,1-.014.069,25.59,25.59,0,0,0-5.273-.434,109.165,109.165,0,0,0-8.2,9.306,8.332,8.332,0,0,1,3.491.254.067.067,0,0,1-.025.131,18.683,18.683,0,0,0-3.726-.052c-.476.606-.957,1.207-1.423,1.821a33.731,33.731,0,0,1,10.547,1.025.042.042,0,0,1-.015.082,42.427,42.427,0,0,0-10.833-.7c-.444.588-.863,1.193-1.3,1.788a22.879,22.879,0,0,1,6.278.718c.079.02.056.144-.024.125a24.02,24.02,0,0,0-6.5-.506c-1.869,2.576-3.66,5.209-5.381,7.874a5.86,5.86,0,0,1,2.756.166.038.038,0,0,1-.015.075,11.934,11.934,0,0,0-2.982.142q-2.321,3.614-4.477,7.29c-.121.207-.454.053-.339-.164" transform="translate(-10.688 -36.088)" fill="#1a2e35"/>
            <path id="Path_8319" data-name="Path 8319" d="M129.885,418.252a13.474,13.474,0,0,1,5.049.618.038.038,0,0,1-.015.075,38.838,38.838,0,0,0-5.02-.515c-.111-.005-.132-.168-.014-.178" transform="translate(-12.068 -38.881)" fill="#1a2e35"/>
            <path id="Path_8320" data-name="Path 8320" d="M146.595,396.335a8.685,8.685,0,0,1,2.328.135c.091.014.063.148-.026.138-.766-.082-1.521-.053-2.287-.075a.1.1,0,0,1-.015-.2" transform="translate(-13.621 -36.844)" fill="#1a2e35"/>
            <path id="Path_8321" data-name="Path 8321" d="M89.28,491.689H128.5l-5.593-40.97-1.429-10.5H96.3l-1.429,10.5Z" transform="translate(-8.3 -40.926)" fill="#858d9e"/>
            <path id="Path_8322" data-name="Path 8322" d="M95.446,450.719h28.038l-1.429-10.5H96.876Z" transform="translate(-8.874 -40.926)" fill="#1a2e35"/>
            <rect id="Rectangle_2992" data-name="Rectangle 2992" width="32.382" height="8.896" transform="translate(84.401 395.645)" fill="#858d9e"/>
            <path id="Path_8323" data-name="Path 8323" d="M315.042,70.382a21.339,21.339,0,0,1-34.064,17.137L270.52,90.189l4.354-9.737a21.346,21.346,0,1,1,40.168-10.07" transform="translate(-25.15 -4.559)" fill="#fff"/>
            <path id="Path_8324" data-name="Path 8324" d="M314.97,70.363c.151,12.344-10.924,22.542-23.2,21.481a21.541,21.541,0,0,1-11.053-4.084l.273.054-10.439,2.743-.8.21.336-.758,4.318-9.752.014.385c-4.923-8.751-2.53-20.581,5.245-26.856,14-11.569,35.3-1.573,35.307,16.58m0,0c.064-13.641-13.284-24.057-26.474-20.444-13.028,3.237-19.749,18.531-13.309,30.307l.1.191-.087.193-4.389,9.722-.462-.548,10.475-2.6.152-.038a20.8,20.8,0,0,0,13.741,4.317c11.078-.237,20.35-10.07,20.251-21.1" transform="translate(-25.078 -4.54)" fill="#1a2e35"/>
            <path id="Path_8325" data-name="Path 8325" d="M296.828,73.587v2.351a1.731,1.731,0,0,1-1.773,1.771,1.775,1.775,0,0,1-1.771-1.771V72.177c0-.035.037-.035.037-.073-.037-.035-.037-.035-.037-.072a1.824,1.824,0,0,1,1.771-1.773,4.051,4.051,0,1,0,0-8.1,4,4,0,0,0-3.472,1.989,1.783,1.783,0,0,1-2.459.651,1.762,1.762,0,0,1-.614-2.423,7.6,7.6,0,1,1,8.318,11.212m0,7.92v.65a1.732,1.732,0,0,1-1.773,1.773,1.776,1.776,0,0,1-1.771-1.773v-.65a1.8,1.8,0,0,1,1.771-1.771,1.753,1.753,0,0,1,1.773,1.771" transform="translate(-26.799 -5.449)" fill="#aab2c5"/>
          </g>
        </g>
      </g>
    </g>
  </g>
</svg>
